<mxfile host="Electron" modified="2023-05-24T20:25:25.232Z" agent="Mozilla/5.0 (Windows NT 10.0; Win64; x64) AppleWebKit/537.36 (KHTML, like Gecko) draw.io/21.2.8 Chrome/112.0.5615.165 Electron/24.2.0 Safari/537.36" etag="J48-HyKh-lO2Vhn3a5FW" version="21.2.8" type="device">
  <diagram name="Pagina-1" id="All7uzV2OwWNBoKM_PWa">
    <mxGraphModel dx="810" dy="1638" grid="0" gridSize="10" guides="1" tooltips="1" connect="1" arrows="1" fold="1" page="1" pageScale="1" pageWidth="1654" pageHeight="1169" background="#ffffff" math="0" shadow="0">
      <root>
        <mxCell id="0" />
        <mxCell id="1" parent="0" />
        <mxCell id="IGpdcPXpx3QODBAOmaDT-8" value="SCUOLA" style="rounded=1;whiteSpace=wrap;html=1;shadow=0;glass=0;points=[[0,0,0,0,0],[0,0.25,0,0,0],[0,0.5,0,0,0],[0,0.75,0,0,0],[0,1,0,0,0],[0.25,0,0,0,0],[0.25,1,0,0,0],[0.5,0,0,0,0],[0.5,1,0,0,0],[0.75,0,0,0,0],[0.75,1,0,0,0],[1,0,0,0,0],[1,0.25,0,0,0],[1,0.5,0,0,0],[1,0.75,0,0,0],[1,1,0,0,0]];fontSize=15;labelBackgroundColor=none;fillColor=#FAE5C7;strokeColor=#0F8B8D;fontColor=#143642;" parent="1" vertex="1">
          <mxGeometry x="1226.25" y="-467" width="182.5" height="40" as="geometry" />
        </mxCell>
        <mxCell id="IGpdcPXpx3QODBAOmaDT-10" value="Partecipa" style="rhombus;whiteSpace=wrap;html=1;rounded=1;shadow=0;glass=0;fontSize=15;align=center;verticalAlign=middle;labelBackgroundColor=none;fillColor=#FAE5C7;strokeColor=#0F8B8D;fontColor=#143642;" parent="1" vertex="1">
          <mxGeometry x="762" y="-477" width="111.5" height="60" as="geometry" />
        </mxCell>
        <mxCell id="YRi1rklV5uPQbC5nY8Jo-14" style="edgeStyle=orthogonalEdgeStyle;rounded=0;orthogonalLoop=1;jettySize=auto;html=1;exitX=0;exitY=1;exitDx=0;exitDy=0;exitPerimeter=0;entryX=0.993;entryY=0.733;entryDx=0;entryDy=0;entryPerimeter=0;strokeColor=#A8201A;fontColor=default;fillColor=#FAE5C7;endArrow=oval;endFill=0;labelBackgroundColor=none;" parent="1" source="IGpdcPXpx3QODBAOmaDT-12" target="YRi1rklV5uPQbC5nY8Jo-13" edge="1">
          <mxGeometry relative="1" as="geometry" />
        </mxCell>
        <mxCell id="IGpdcPXpx3QODBAOmaDT-12" value="PERSONA" style="whiteSpace=wrap;html=1;rounded=1;shadow=0;glass=0;fontSize=15;points=[[0,0,0,0,0],[0,0.25,0,0,0],[0,0.5,0,0,0],[0,0.75,0,0,0],[0,1,0,0,0],[0.25,0,0,0,0],[0.25,1,0,0,0],[0.5,0,0,0,0],[0.5,1,0,0,0],[0.75,0,0,0,0],[0.75,1,0,0,0],[1,0,0,0,0],[1,0.25,0,0,0],[1,0.5,0,0,0],[1,0.75,0,0,0],[1,1,0,0,0]];labelBackgroundColor=none;fillColor=#FAE5C7;strokeColor=#0F8B8D;fontColor=#143642;" parent="1" vertex="1">
          <mxGeometry x="606.0000000000002" y="-467" width="100" height="40" as="geometry" />
        </mxCell>
        <mxCell id="IGpdcPXpx3QODBAOmaDT-101" value="Possiede" style="rhombus;whiteSpace=wrap;html=1;fontFamily=Helvetica;fontSize=15;labelBackgroundColor=none;rounded=1;fillColor=#FAE5C7;strokeColor=#0F8B8D;fontColor=#143642;" parent="1" vertex="1">
          <mxGeometry x="1325.25" y="-613" width="87.5" height="70" as="geometry" />
        </mxCell>
        <mxCell id="2ZxViYWchOxOmelXp1Hh-58" style="edgeStyle=none;shape=connector;rounded=1;orthogonalLoop=1;jettySize=auto;html=1;exitX=0;exitY=0.5;exitDx=0;exitDy=0;exitPerimeter=0;entryX=1;entryY=0.5;entryDx=0;entryDy=0;labelBackgroundColor=none;fontFamily=Helvetica;fontSize=15;fontColor=default;endArrow=none;endFill=0;strokeColor=#A8201A;" parent="1" source="IGpdcPXpx3QODBAOmaDT-103" target="9Mot5vRxFBjQDdBxqjVs-2" edge="1">
          <mxGeometry relative="1" as="geometry">
            <mxPoint x="2129.86" y="-39.039999999999964" as="targetPoint" />
          </mxGeometry>
        </mxCell>
        <mxCell id="IGpdcPXpx3QODBAOmaDT-103" value="ORTO" style="rounded=1;whiteSpace=wrap;html=1;shadow=0;glass=0;points=[[0,0,0,0,0],[0,0.25,0,0,0],[0,0.5,0,0,0],[0,0.75,0,0,0],[0,1,0,0,0],[0.25,0,0,0,0],[0.25,1,0,0,0],[0.5,0,0,0,0],[0.5,1,0,0,0],[0.75,0,0,0,0],[0.75,1,0,0,0],[1,0,0,0,0],[1,0.25,0,0,0],[1,0.5,0,0,0],[1,0.75,0,0,0],[1,1,0,0,0]];fontSize=15;labelBackgroundColor=none;fillColor=#FAE5C7;strokeColor=#0F8B8D;fontColor=#143642;" parent="1" vertex="1">
          <mxGeometry x="1232.75" y="-699" width="181" height="40" as="geometry" />
        </mxCell>
        <mxCell id="IGpdcPXpx3QODBAOmaDT-109" style="edgeStyle=none;shape=connector;rounded=1;orthogonalLoop=1;jettySize=auto;html=1;entryX=0.75;entryY=1;entryDx=0;entryDy=0;entryPerimeter=0;labelBackgroundColor=none;fontFamily=Helvetica;fontSize=15;fontColor=default;endArrow=none;endFill=0;exitX=0.5;exitY=1;exitDx=0;exitDy=0;strokeColor=#A8201A;" parent="1" source="2ZxViYWchOxOmelXp1Hh-26" target="IGpdcPXpx3QODBAOmaDT-8" edge="1">
          <mxGeometry relative="1" as="geometry" />
        </mxCell>
        <mxCell id="IGpdcPXpx3QODBAOmaDT-114" style="edgeStyle=none;shape=connector;rounded=1;orthogonalLoop=1;jettySize=auto;html=1;labelBackgroundColor=none;fontFamily=Helvetica;fontSize=15;fontColor=default;endArrow=oval;endFill=0;strokeColor=#A8201A;entryX=0.112;entryY=0.187;entryDx=0;entryDy=0;entryPerimeter=0;exitX=1;exitY=0;exitDx=0;exitDy=0;exitPerimeter=0;" parent="1" source="IGpdcPXpx3QODBAOmaDT-111" target="IGpdcPXpx3QODBAOmaDT-113" edge="1">
          <mxGeometry relative="1" as="geometry">
            <mxPoint x="1287" y="-103" as="sourcePoint" />
            <mxPoint x="1384" y="-75" as="targetPoint" />
            <Array as="points" />
          </mxGeometry>
        </mxCell>
        <mxCell id="IGpdcPXpx3QODBAOmaDT-118" style="edgeStyle=none;shape=connector;rounded=1;orthogonalLoop=1;jettySize=auto;html=1;labelBackgroundColor=none;fontFamily=Helvetica;fontSize=15;fontColor=default;endArrow=oval;endFill=0;strokeColor=#A8201A;exitX=0.75;exitY=1;exitDx=0;exitDy=0;exitPerimeter=0;entryX=0.614;entryY=-0.15;entryDx=0;entryDy=0;entryPerimeter=0;" parent="1" source="IGpdcPXpx3QODBAOmaDT-111" target="IGpdcPXpx3QODBAOmaDT-115" edge="1">
          <mxGeometry relative="1" as="geometry">
            <mxPoint x="1355.5" y="-159" as="sourcePoint" />
            <mxPoint x="1421" y="-11" as="targetPoint" />
            <Array as="points" />
          </mxGeometry>
        </mxCell>
        <mxCell id="IGpdcPXpx3QODBAOmaDT-120" style="edgeStyle=none;shape=connector;rounded=1;orthogonalLoop=1;jettySize=auto;html=1;exitX=0.25;exitY=1;exitDx=0;exitDy=0;exitPerimeter=0;labelBackgroundColor=none;fontFamily=Helvetica;fontSize=15;fontColor=default;endArrow=oval;endFill=0;strokeColor=#A8201A;entryX=0.517;entryY=-0.204;entryDx=0;entryDy=0;entryPerimeter=0;" parent="1" source="IGpdcPXpx3QODBAOmaDT-111" target="IGpdcPXpx3QODBAOmaDT-116" edge="1">
          <mxGeometry relative="1" as="geometry">
            <mxPoint x="1377.9" y="-157.4000000000001" as="sourcePoint" />
            <mxPoint x="1347" y="-61" as="targetPoint" />
          </mxGeometry>
        </mxCell>
        <mxCell id="IGpdcPXpx3QODBAOmaDT-111" value="CLASSE" style="rounded=1;whiteSpace=wrap;html=1;shadow=0;glass=0;points=[[0,0,0,0,0],[0,0.25,0,0,0],[0,0.5,0,0,0],[0,0.75,0,0,0],[0,1,0,0,0],[0.25,0,0,0,0],[0.25,1,0,0,0],[0.5,0,0,0,0],[0.5,1,0,0,0],[0.75,0,0,0,0],[0.75,1,0,0,0],[1,0,0,0,0],[1,0.25,0,0,0],[1,0.5,0,0,0],[1,0.75,0,0,0],[1,1,0,0,0]];fontSize=15;labelBackgroundColor=none;fillColor=#FAE5C7;strokeColor=#0F8B8D;fontColor=#143642;" parent="1" vertex="1">
          <mxGeometry x="1312.75" y="-149" width="100" height="40" as="geometry" />
        </mxCell>
        <mxCell id="IGpdcPXpx3QODBAOmaDT-113" value="Nome" style="text;html=1;align=center;verticalAlign=middle;resizable=0;points=[];autosize=1;strokeColor=none;fillColor=none;fontSize=15;fontFamily=Helvetica;labelBackgroundColor=none;rounded=1;fontColor=#143642;arcSize=50;" parent="1" vertex="1">
          <mxGeometry x="1439" y="-174" width="60" height="30" as="geometry" />
        </mxCell>
        <mxCell id="IGpdcPXpx3QODBAOmaDT-115" value="Ordine" style="text;html=1;align=center;verticalAlign=middle;resizable=0;points=[];autosize=1;strokeColor=none;fillColor=none;fontSize=15;fontFamily=Helvetica;labelBackgroundColor=none;rounded=1;fontColor=#143642;arcSize=50;" parent="1" vertex="1">
          <mxGeometry x="1345" y="-92" width="70" height="30" as="geometry" />
        </mxCell>
        <mxCell id="IGpdcPXpx3QODBAOmaDT-116" value="Tipo" style="text;html=1;align=center;verticalAlign=middle;resizable=0;points=[];autosize=1;strokeColor=none;fillColor=none;fontSize=15;fontFamily=Helvetica;labelBackgroundColor=none;rounded=1;fontColor=#143642;" parent="1" vertex="1">
          <mxGeometry x="1311.75" y="-92" width="50" height="30" as="geometry" />
        </mxCell>
        <mxCell id="9Mot5vRxFBjQDdBxqjVs-2" value="Contiene" style="rhombus;whiteSpace=wrap;html=1;fontSize=15;labelBackgroundColor=none;rounded=1;fillColor=#FAE5C7;strokeColor=#0F8B8D;fontColor=#143642;" parent="1" vertex="1">
          <mxGeometry x="1071.5" y="-709" width="90" height="60" as="geometry" />
        </mxCell>
        <mxCell id="ZCTQWjX--OK0ONbOPQjy-1" style="edgeStyle=orthogonalEdgeStyle;rounded=1;orthogonalLoop=1;jettySize=auto;html=1;entryX=1;entryY=0.5;entryDx=0;entryDy=0;entryPerimeter=0;fontFamily=Helvetica;fontSize=15;fontColor=default;endArrow=none;endFill=0;labelBackgroundColor=none;exitX=0.5;exitY=1;exitDx=0;exitDy=0;strokeColor=#A8201A;" parent="1" source="9Mot5vRxFBjQDdBxqjVs-57" target="9Mot5vRxFBjQDdBxqjVs-58" edge="1">
          <mxGeometry relative="1" as="geometry">
            <mxPoint x="1050" y="-855" as="sourcePoint" />
            <Array as="points">
              <mxPoint x="552" y="-657" />
            </Array>
          </mxGeometry>
        </mxCell>
        <mxCell id="9Mot5vRxFBjQDdBxqjVs-57" value="Effettuata" style="rhombus;whiteSpace=wrap;html=1;fontSize=15;labelBackgroundColor=none;rounded=1;fillColor=#FAE5C7;strokeColor=#0F8B8D;fontColor=#143642;" parent="1" vertex="1">
          <mxGeometry x="506.0000000000002" y="-871.5" width="91.5" height="67" as="geometry" />
        </mxCell>
        <mxCell id="TdYUr1XkgakKkLenXr9e-14" style="edgeStyle=orthogonalEdgeStyle;rounded=0;orthogonalLoop=1;jettySize=auto;html=1;exitX=0.25;exitY=1;exitDx=0;exitDy=0;exitPerimeter=0;entryX=1;entryY=0.5;entryDx=0;entryDy=0;strokeColor=#A8201A;fontColor=default;fillColor=#FAE5C7;endArrow=none;endFill=0;labelBackgroundColor=none;" parent="1" source="9Mot5vRxFBjQDdBxqjVs-58" target="YRi1rklV5uPQbC5nY8Jo-8" edge="1">
          <mxGeometry relative="1" as="geometry">
            <Array as="points" />
            <mxPoint x="143" y="-527.0160000000001" as="targetPoint" />
          </mxGeometry>
        </mxCell>
        <mxCell id="5yJj1m6lIFx6nLE_NoE7-8" style="edgeStyle=orthogonalEdgeStyle;rounded=0;orthogonalLoop=1;jettySize=auto;html=1;exitX=1;exitY=1;exitDx=0;exitDy=0;exitPerimeter=0;endArrow=none;endFill=0;labelBackgroundColor=none;strokeColor=#A8201A;fontColor=default;" edge="1" parent="1" source="9Mot5vRxFBjQDdBxqjVs-58" target="5yJj1m6lIFx6nLE_NoE7-1">
          <mxGeometry relative="1" as="geometry">
            <Array as="points">
              <mxPoint x="388" y="-637" />
            </Array>
          </mxGeometry>
        </mxCell>
        <mxCell id="9Mot5vRxFBjQDdBxqjVs-58" value="RILEVAZIONE" style="whiteSpace=wrap;html=1;rounded=1;shadow=0;glass=0;fontSize=15;points=[[0,0,0,0,0],[0,0.25,0,0,0],[0,0.5,0,0,0],[0,0.75,0,0,0],[0,1,0,0,0],[0.25,0,0,0,0],[0.25,1,0,0,0],[0.5,0,0,0,0],[0.5,1,0,0,0],[0.75,0,0,0,0],[0.75,1,0,0,0],[1,0,0,0,0],[1,0.25,0,0,0],[1,0.5,0,0,0],[1,0.75,0,0,0],[1,1,0,0,0]];movable=1;resizable=1;rotatable=1;deletable=1;editable=1;locked=0;connectable=1;labelBackgroundColor=none;fillColor=#FAE5C7;strokeColor=#0F8B8D;fontColor=#143642;" parent="1" vertex="1">
          <mxGeometry x="227" y="-677" width="121" height="40" as="geometry" />
        </mxCell>
        <mxCell id="9Mot5vRxFBjQDdBxqjVs-64" value="&lt;font style=&quot;font-size: 12px;&quot;&gt;Adatto: True - False&lt;br&gt;&lt;br&gt;Ruolo:&amp;nbsp; Docente, Dirigente, Referente, Rilevatore Esterno&lt;br&gt;&lt;br&gt;Scopo:&amp;nbsp; Biomonitoraggio - Fitobonifica&lt;br&gt;&lt;br&gt;Substrato: Terriccio Rinvaso - Suolo Pre-esistente&lt;br&gt;&lt;br&gt;Collocazione: Vaso - Terra&lt;br&gt;&lt;br&gt;Sensore: Scheda_Arduino - Sensore&lt;br&gt;&lt;br&gt;Acquisizione:&amp;nbsp; Arduino - App&amp;nbsp;&lt;br&gt;&lt;br&gt;TipoGruppo:&amp;nbsp; Pulito&amp;nbsp; o&amp;nbsp; Inquinato&lt;/font&gt;" style="rounded=1;whiteSpace=wrap;html=1;fontFamily=Helvetica;fontSize=11;labelBackgroundColor=none;fillColor=#FAE5C7;strokeColor=#0F8B8D;fontColor=#143642;" parent="1" vertex="1">
          <mxGeometry x="21" y="-297" width="394.38" height="281" as="geometry" />
        </mxCell>
        <mxCell id="9Mot5vRxFBjQDdBxqjVs-78" value="Rappresentata" style="rhombus;whiteSpace=wrap;html=1;rounded=1;shadow=0;glass=0;fontSize=15;align=center;verticalAlign=middle;labelBackgroundColor=none;fillColor=#FAE5C7;strokeColor=#0F8B8D;fontColor=#143642;" parent="1" vertex="1">
          <mxGeometry x="576" y="-162" width="160" height="60" as="geometry" />
        </mxCell>
        <mxCell id="9Mot5vRxFBjQDdBxqjVs-86" value="Responsabile" style="rhombus;whiteSpace=wrap;html=1;fontSize=15;labelBackgroundColor=none;rounded=1;fillColor=#FAE5C7;strokeColor=#0F8B8D;fontColor=#143642;" parent="1" vertex="1">
          <mxGeometry x="217.5" y="-478" width="140" height="60" as="geometry" />
        </mxCell>
        <mxCell id="TdYUr1XkgakKkLenXr9e-53" style="edgeStyle=orthogonalEdgeStyle;rounded=0;orthogonalLoop=1;jettySize=auto;html=1;exitX=0;exitY=0.5;exitDx=0;exitDy=0;exitPerimeter=0;strokeColor=#A8201A;fontColor=default;fillColor=#FAE5C7;endArrow=oval;endFill=1;labelBackgroundColor=none;" parent="1" source="9Mot5vRxFBjQDdBxqjVs-103" target="KA5vXZ2nPaFK-a-9JE_G-93" edge="1">
          <mxGeometry relative="1" as="geometry" />
        </mxCell>
        <mxCell id="9Mot5vRxFBjQDdBxqjVs-103" value="SENSORE" style="whiteSpace=wrap;html=1;rounded=1;shadow=0;glass=0;fontSize=15;points=[[0,0,0,0,0],[0,0.25,0,0,0],[0,0.5,0,0,0],[0,0.75,0,0,0],[0,1,0,0,0],[0.25,0,0,0,0],[0.25,1,0,0,0],[0.5,0,0,0,0],[0.5,1,0,0,0],[0.75,0,0,0,0],[0.75,1,0,0,0],[1,0,0,0,0],[1,0.25,0,0,0],[1,0.5,0,0,0],[1,0.75,0,0,0],[1,1,0,0,0]];movable=1;resizable=1;rotatable=1;deletable=1;editable=1;locked=0;connectable=1;labelBackgroundColor=none;fillColor=#FAE5C7;strokeColor=#0F8B8D;fontColor=#143642;" parent="1" vertex="1">
          <mxGeometry x="237.5" y="-879" width="100" height="40" as="geometry" />
        </mxCell>
        <mxCell id="9Mot5vRxFBjQDdBxqjVs-104" value="Rilevata" style="rhombus;whiteSpace=wrap;html=1;rounded=1;shadow=0;glass=0;fontSize=15;align=center;labelBackgroundColor=none;fillColor=#FAE5C7;strokeColor=#0F8B8D;fontColor=#143642;" parent="1" vertex="1">
          <mxGeometry x="237.5" y="-785.5" width="100" height="82" as="geometry" />
        </mxCell>
        <mxCell id="2ZxViYWchOxOmelXp1Hh-9" value="Utilizza" style="rhombus;whiteSpace=wrap;html=1;fontFamily=Helvetica;fontSize=15;labelBackgroundColor=none;rounded=1;fillColor=#FAE5C7;strokeColor=#0F8B8D;fontColor=#143642;" parent="1" vertex="1">
          <mxGeometry x="1234" y="-574" width="87.5" height="70" as="geometry" />
        </mxCell>
        <mxCell id="2ZxViYWchOxOmelXp1Hh-26" value="Afferisce" style="rhombus;whiteSpace=wrap;html=1;fontFamily=Helvetica;fontSize=15;align=center;verticalAlign=middle;labelBackgroundColor=none;rounded=1;fillColor=#FAE5C7;strokeColor=#0F8B8D;fontColor=#143642;" parent="1" vertex="1">
          <mxGeometry x="1302.5" y="-331" width="120" height="71" as="geometry" />
        </mxCell>
        <mxCell id="2ZxViYWchOxOmelXp1Hh-27" value="Iscritta" style="rhombus;whiteSpace=wrap;html=1;fontFamily=Helvetica;fontSize=15;align=center;verticalAlign=middle;labelBackgroundColor=none;rounded=1;fillColor=#FAE5C7;strokeColor=#0F8B8D;fontColor=#143642;" parent="1" vertex="1">
          <mxGeometry x="1092" y="-472" width="97" height="50" as="geometry" />
        </mxCell>
        <mxCell id="2ZxViYWchOxOmelXp1Hh-42" value="SPECIE" style="rounded=1;whiteSpace=wrap;html=1;shadow=0;glass=0;points=[[0,0,0,0,0],[0,0.25,0,0,0],[0,0.5,0,0,0],[0,0.75,0,0,0],[0,1,0,0,0],[0.25,0,0,0,0],[0.25,1,0,0,0],[0.5,0,0,0,0],[0.5,1,0,0,0],[0.75,0,0,0,0],[0.75,1,0,0,0],[1,0,0,0,0],[1,0.25,0,0,0],[1,0.5,0,0,0],[1,0.75,0,0,0],[1,1,0,0,0]];fontSize=15;labelBackgroundColor=none;fillColor=#FAE5C7;strokeColor=#0F8B8D;fontColor=#143642;" parent="1" vertex="1">
          <mxGeometry x="851.0000000000002" y="-699" width="160" height="40" as="geometry" />
        </mxCell>
        <mxCell id="2ZxViYWchOxOmelXp1Hh-57" style="edgeStyle=none;shape=connector;rounded=1;orthogonalLoop=1;jettySize=auto;html=1;exitX=0.5;exitY=1;exitDx=0;exitDy=0;labelBackgroundColor=none;fontFamily=Helvetica;fontSize=15;fontColor=default;endArrow=oval;endFill=0;strokeColor=#A8201A;" parent="1" source="9Mot5vRxFBjQDdBxqjVs-104" target="9Mot5vRxFBjQDdBxqjVs-104" edge="1">
          <mxGeometry relative="1" as="geometry" />
        </mxCell>
        <mxCell id="2ZxViYWchOxOmelXp1Hh-59" value="GRUPPO" style="whiteSpace=wrap;html=1;rounded=1;shadow=0;glass=0;fontSize=15;points=[[0,0,0,0,0],[0,0.25,0,0,0],[0,0.5,0,0,0],[0,0.75,0,0,0],[0,1,0,0,0],[0.25,0,0,0,0],[0.25,1,0,0,0],[0.5,0,0,0,0],[0.5,1,0,0,0],[0.75,0,0,0,0],[0.75,1,0,0,0],[1,0,0,0,0],[1,0.25,0,0,0],[1,0.5,0,0,0],[1,0.75,0,0,0],[1,1,0,0,0]];movable=1;resizable=1;rotatable=1;deletable=1;editable=1;locked=0;connectable=1;labelBackgroundColor=none;fillColor=#FAE5C7;strokeColor=#0F8B8D;fontColor=#143642;" parent="1" vertex="1">
          <mxGeometry x="710" y="-1064" width="100" height="40" as="geometry" />
        </mxCell>
        <mxCell id="2ZxViYWchOxOmelXp1Hh-60" value="Contenuta" style="rhombus;whiteSpace=wrap;html=1;fontSize=15;labelBackgroundColor=none;rounded=1;fillColor=#FAE5C7;strokeColor=#0F8B8D;fontColor=#143642;" parent="1" vertex="1">
          <mxGeometry x="710.0000000000002" y="-970" width="100" height="46.5" as="geometry" />
        </mxCell>
        <mxCell id="Dx_CMPOLSW68eJcPcujk-1" value="Appartiene" style="rhombus;whiteSpace=wrap;html=1;fontFamily=Helvetica;fontSize=15;align=center;verticalAlign=middle;labelBackgroundColor=none;rounded=1;fillColor=#FAE5C7;strokeColor=#0F8B8D;fontColor=#143642;" parent="1" vertex="1">
          <mxGeometry x="931.5000000000002" y="-251" width="140" height="71" as="geometry" />
        </mxCell>
        <mxCell id="Dx_CMPOLSW68eJcPcujk-4" style="edgeStyle=orthogonalEdgeStyle;rounded=1;orthogonalLoop=1;jettySize=auto;html=1;exitX=0.5;exitY=1;exitDx=0;exitDy=0;labelBackgroundColor=none;strokeColor=#A8201A;fontColor=default;" parent="1" edge="1">
          <mxGeometry relative="1" as="geometry">
            <mxPoint x="1023.5" y="-180" as="sourcePoint" />
            <mxPoint x="1023.5" y="-180" as="targetPoint" />
          </mxGeometry>
        </mxCell>
        <mxCell id="Dx_CMPOLSW68eJcPcujk-12" value="REPLICA&amp;nbsp; /&amp;nbsp; PIANTA" style="rounded=1;whiteSpace=wrap;html=1;shadow=0;glass=0;points=[[0,0,0,0,0],[0,0.25,0,0,0],[0,0.5,0,0,0],[0,0.75,0,0,0],[0,1,0,0,0],[0.25,0,0,0,0],[0.25,1,0,0,0],[0.5,0,0,0,0],[0.5,1,0,0,0],[0.75,0,0,0,0],[0.75,1,0,0,0],[1,0,0,0,0],[1,0.25,0,0,0],[1,0.5,0,0,0],[1,0.75,0,0,0],[1,1,0,0,0]];fontSize=15;labelBackgroundColor=none;fillColor=#FAE5C7;strokeColor=#0F8B8D;fontColor=#143642;" parent="1" vertex="1">
          <mxGeometry x="680.0000000000002" y="-858" width="160" height="40" as="geometry" />
        </mxCell>
        <mxCell id="Dx_CMPOLSW68eJcPcujk-19" value="Include" style="rhombus;whiteSpace=wrap;html=1;fontSize=15;labelBackgroundColor=none;rounded=1;fillColor=#FAE5C7;strokeColor=#0F8B8D;fontColor=#143642;" parent="1" vertex="1">
          <mxGeometry x="714.2500000000002" y="-778" width="91.5" height="67" as="geometry" />
        </mxCell>
        <mxCell id="Dx_CMPOLSW68eJcPcujk-28" value="Ospita" style="rhombus;whiteSpace=wrap;html=1;fontSize=15;labelBackgroundColor=none;rounded=1;fillColor=#FAE5C7;strokeColor=#0F8B8D;fontColor=#143642;" parent="1" vertex="1">
          <mxGeometry x="1030" y="-865" width="90" height="60" as="geometry" />
        </mxCell>
        <mxCell id="Dx_CMPOLSW68eJcPcujk-40" value="Coltiva*" style="rhombus;whiteSpace=wrap;html=1;fontSize=15;labelBackgroundColor=none;rounded=1;fillColor=#FAE5C7;strokeColor=#0F8B8D;fontColor=#143642;" parent="1" vertex="1">
          <mxGeometry x="1304" y="-990" width="90.25" height="60" as="geometry" />
        </mxCell>
        <mxCell id="77c9ratOZqriTQwKT7vz-7" value="*Classe che l&#39;ha messa a dimora" style="shape=card;whiteSpace=wrap;html=1;size=31;rounded=1;labelBackgroundColor=none;fillColor=#FAE5C7;strokeColor=#0F8B8D;fontColor=#143642;" parent="1" vertex="1">
          <mxGeometry x="1057.5" y="-1018" width="242" height="48" as="geometry" />
        </mxCell>
        <mxCell id="77c9ratOZqriTQwKT7vz-8" style="edgeStyle=orthogonalEdgeStyle;rounded=1;orthogonalLoop=1;jettySize=auto;html=1;exitX=0.5;exitY=1;exitDx=0;exitDy=0;exitPerimeter=0;labelBackgroundColor=none;strokeColor=#A8201A;fontColor=default;" parent="1" source="77c9ratOZqriTQwKT7vz-7" target="77c9ratOZqriTQwKT7vz-7" edge="1">
          <mxGeometry relative="1" as="geometry" />
        </mxCell>
        <mxCell id="KA5vXZ2nPaFK-a-9JE_G-16" value="" style="endArrow=none;html=1;rounded=0;entryX=0.5;entryY=1;entryDx=0;entryDy=0;exitX=0.5;exitY=0;exitDx=0;exitDy=0;exitPerimeter=0;labelBackgroundColor=none;strokeColor=#A8201A;fontColor=default;" parent="1" source="IGpdcPXpx3QODBAOmaDT-111" target="2ZxViYWchOxOmelXp1Hh-26" edge="1">
          <mxGeometry width="50" height="50" relative="1" as="geometry">
            <mxPoint x="1318" y="-173" as="sourcePoint" />
            <mxPoint x="1050" y="-442" as="targetPoint" />
          </mxGeometry>
        </mxCell>
        <mxCell id="KA5vXZ2nPaFK-a-9JE_G-18" value="" style="endArrow=none;html=1;rounded=0;entryX=0;entryY=0.5;entryDx=0;entryDy=0;entryPerimeter=0;exitX=1;exitY=0.5;exitDx=0;exitDy=0;labelBackgroundColor=none;strokeColor=#A8201A;fontColor=default;" parent="1" source="9Mot5vRxFBjQDdBxqjVs-86" target="IGpdcPXpx3QODBAOmaDT-12" edge="1">
          <mxGeometry width="50" height="50" relative="1" as="geometry">
            <mxPoint x="1169" y="-342" as="sourcePoint" />
            <mxPoint x="1219" y="-392" as="targetPoint" />
          </mxGeometry>
        </mxCell>
        <mxCell id="KA5vXZ2nPaFK-a-9JE_G-20" value="" style="endArrow=none;html=1;rounded=0;entryX=0;entryY=0.5;entryDx=0;entryDy=0;exitX=1;exitY=0.5;exitDx=0;exitDy=0;exitPerimeter=0;labelBackgroundColor=none;strokeColor=#A8201A;fontColor=default;" parent="1" source="2ZxViYWchOxOmelXp1Hh-42" target="9Mot5vRxFBjQDdBxqjVs-2" edge="1">
          <mxGeometry width="50" height="50" relative="1" as="geometry">
            <mxPoint x="886" y="-1005" as="sourcePoint" />
            <mxPoint x="936" y="-1055" as="targetPoint" />
          </mxGeometry>
        </mxCell>
        <mxCell id="KA5vXZ2nPaFK-a-9JE_G-21" value="" style="endArrow=none;html=1;rounded=0;entryX=0;entryY=0.5;entryDx=0;entryDy=0;entryPerimeter=0;exitX=0.959;exitY=0.495;exitDx=0;exitDy=0;labelBackgroundColor=none;strokeColor=#A8201A;fontColor=default;exitPerimeter=0;" parent="1" source="9Mot5vRxFBjQDdBxqjVs-78" target="IGpdcPXpx3QODBAOmaDT-111" edge="1">
          <mxGeometry width="50" height="50" relative="1" as="geometry">
            <mxPoint x="886" y="-504" as="sourcePoint" />
            <mxPoint x="936" y="-554" as="targetPoint" />
          </mxGeometry>
        </mxCell>
        <mxCell id="KA5vXZ2nPaFK-a-9JE_G-23" value="" style="endArrow=none;html=1;rounded=0;entryX=0;entryY=0.5;entryDx=0;entryDy=0;entryPerimeter=0;exitX=0.964;exitY=0.496;exitDx=0;exitDy=0;labelBackgroundColor=none;strokeColor=#A8201A;fontColor=default;exitPerimeter=0;" parent="1" source="2ZxViYWchOxOmelXp1Hh-27" target="IGpdcPXpx3QODBAOmaDT-8" edge="1">
          <mxGeometry width="50" height="50" relative="1" as="geometry">
            <mxPoint x="814" y="-461" as="sourcePoint" />
            <mxPoint x="1258" y="-375" as="targetPoint" />
            <Array as="points" />
          </mxGeometry>
        </mxCell>
        <mxCell id="2ZxViYWchOxOmelXp1Hh-18" value="PROGETTO" style="rounded=1;whiteSpace=wrap;html=1;shadow=0;glass=0;points=[[0,0,0,0,0],[0,0.25,0,0,0],[0,0.5,0,0,0],[0,0.75,0,0,0],[0,1,0,0,0],[0.25,0,0,0,0],[0.25,1,0,0,0],[0.5,0,0,0,0],[0.5,1,0,0,0],[0.75,0,0,0,0],[0.75,1,0,0,0],[1,0,0,0,0],[1,0.25,0,0,0],[1,0.5,0,0,0],[1,0.75,0,0,0],[1,1,0,0,0]];fontSize=15;labelBackgroundColor=none;fillColor=#FAE5C7;strokeColor=#0F8B8D;fontColor=#143642;" parent="1" vertex="1">
          <mxGeometry x="928" y="-467" width="130.5" height="40" as="geometry" />
        </mxCell>
        <mxCell id="KA5vXZ2nPaFK-a-9JE_G-28" value="" style="endArrow=none;html=1;rounded=0;entryX=0;entryY=0.5;entryDx=0;entryDy=0;entryPerimeter=0;exitX=1;exitY=0.5;exitDx=0;exitDy=0;labelBackgroundColor=none;strokeColor=#A8201A;fontColor=default;" parent="1" source="IGpdcPXpx3QODBAOmaDT-10" target="2ZxViYWchOxOmelXp1Hh-18" edge="1">
          <mxGeometry width="50" height="50" relative="1" as="geometry">
            <mxPoint x="1082" y="-451" as="sourcePoint" />
            <mxPoint x="1132" y="-501" as="targetPoint" />
          </mxGeometry>
        </mxCell>
        <mxCell id="KA5vXZ2nPaFK-a-9JE_G-29" value="" style="endArrow=none;html=1;rounded=0;entryX=1;entryY=0.5;entryDx=0;entryDy=0;entryPerimeter=0;exitX=0;exitY=0.5;exitDx=0;exitDy=0;labelBackgroundColor=none;strokeColor=#A8201A;fontColor=default;" parent="1" source="IGpdcPXpx3QODBAOmaDT-10" target="IGpdcPXpx3QODBAOmaDT-12" edge="1">
          <mxGeometry width="50" height="50" relative="1" as="geometry">
            <mxPoint x="1082" y="-451" as="sourcePoint" />
            <mxPoint x="1132" y="-501" as="targetPoint" />
          </mxGeometry>
        </mxCell>
        <mxCell id="KA5vXZ2nPaFK-a-9JE_G-30" value="" style="endArrow=none;html=1;rounded=0;entryX=0.5;entryY=1;entryDx=0;entryDy=0;entryPerimeter=0;exitX=0.5;exitY=0;exitDx=0;exitDy=0;labelBackgroundColor=none;strokeColor=#A8201A;fontColor=default;" parent="1" source="9Mot5vRxFBjQDdBxqjVs-104" target="9Mot5vRxFBjQDdBxqjVs-103" edge="1">
          <mxGeometry width="50" height="50" relative="1" as="geometry">
            <mxPoint x="1082" y="-823" as="sourcePoint" />
            <mxPoint x="1132" y="-873" as="targetPoint" />
          </mxGeometry>
        </mxCell>
        <mxCell id="KA5vXZ2nPaFK-a-9JE_G-31" value="" style="endArrow=none;html=1;rounded=0;exitX=0.5;exitY=0;exitDx=0;exitDy=0;exitPerimeter=0;entryX=0.5;entryY=1;entryDx=0;entryDy=0;labelBackgroundColor=none;strokeColor=#A8201A;fontColor=default;" parent="1" source="9Mot5vRxFBjQDdBxqjVs-58" target="9Mot5vRxFBjQDdBxqjVs-104" edge="1">
          <mxGeometry width="50" height="50" relative="1" as="geometry">
            <mxPoint x="1082" y="-823" as="sourcePoint" />
            <mxPoint x="1132" y="-873" as="targetPoint" />
          </mxGeometry>
        </mxCell>
        <mxCell id="KA5vXZ2nPaFK-a-9JE_G-33" value="" style="endArrow=none;html=1;rounded=0;entryX=0;entryY=0.5;entryDx=0;entryDy=0;entryPerimeter=0;exitX=1;exitY=0.5;exitDx=0;exitDy=0;labelBackgroundColor=none;strokeColor=#A8201A;fontColor=default;" parent="1" source="9Mot5vRxFBjQDdBxqjVs-57" target="Dx_CMPOLSW68eJcPcujk-12" edge="1">
          <mxGeometry width="50" height="50" relative="1" as="geometry">
            <mxPoint x="1082" y="-823" as="sourcePoint" />
            <mxPoint x="1132" y="-873" as="targetPoint" />
          </mxGeometry>
        </mxCell>
        <mxCell id="KA5vXZ2nPaFK-a-9JE_G-34" value="" style="endArrow=none;html=1;rounded=0;exitX=0.5;exitY=0;exitDx=0;exitDy=0;entryX=0.5;entryY=1;entryDx=0;entryDy=0;entryPerimeter=0;strokeColor=#A8201A;labelBackgroundColor=none;fontColor=default;" parent="1" source="9Mot5vRxFBjQDdBxqjVs-78" target="IGpdcPXpx3QODBAOmaDT-12" edge="1">
          <mxGeometry width="50" height="50" relative="1" as="geometry">
            <mxPoint x="764" y="-283" as="sourcePoint" />
            <mxPoint x="814" y="-333" as="targetPoint" />
          </mxGeometry>
        </mxCell>
        <mxCell id="KA5vXZ2nPaFK-a-9JE_G-35" value="" style="endArrow=none;html=1;rounded=0;entryX=0;entryY=0.5;entryDx=0;entryDy=0;entryPerimeter=0;exitX=0.491;exitY=0.955;exitDx=0;exitDy=0;labelBackgroundColor=none;strokeColor=#A8201A;fontColor=default;exitPerimeter=0;" parent="1" source="Dx_CMPOLSW68eJcPcujk-19" target="2ZxViYWchOxOmelXp1Hh-42" edge="1">
          <mxGeometry width="50" height="50" relative="1" as="geometry">
            <mxPoint x="764" y="-949" as="sourcePoint" />
            <mxPoint x="814" y="-999" as="targetPoint" />
            <Array as="points">
              <mxPoint x="759" y="-678" />
            </Array>
          </mxGeometry>
        </mxCell>
        <mxCell id="KA5vXZ2nPaFK-a-9JE_G-36" value="" style="endArrow=none;html=1;rounded=0;entryX=0.491;entryY=0.072;entryDx=0;entryDy=0;exitX=0.5;exitY=1;exitDx=0;exitDy=0;exitPerimeter=0;labelBackgroundColor=none;strokeColor=#A8201A;fontColor=default;entryPerimeter=0;" parent="1" source="Dx_CMPOLSW68eJcPcujk-12" target="Dx_CMPOLSW68eJcPcujk-19" edge="1">
          <mxGeometry width="50" height="50" relative="1" as="geometry">
            <mxPoint x="764" y="-949" as="sourcePoint" />
            <mxPoint x="814" y="-999" as="targetPoint" />
          </mxGeometry>
        </mxCell>
        <mxCell id="KA5vXZ2nPaFK-a-9JE_G-38" value="" style="endArrow=none;html=1;rounded=0;exitX=0.036;exitY=0.496;exitDx=0;exitDy=0;entryX=1;entryY=0.5;entryDx=0;entryDy=0;entryPerimeter=0;labelBackgroundColor=none;strokeColor=#A8201A;fontColor=default;exitPerimeter=0;" parent="1" source="Dx_CMPOLSW68eJcPcujk-28" target="Dx_CMPOLSW68eJcPcujk-12" edge="1">
          <mxGeometry width="50" height="50" relative="1" as="geometry">
            <mxPoint x="764" y="-1100" as="sourcePoint" />
            <mxPoint x="814" y="-1150" as="targetPoint" />
          </mxGeometry>
        </mxCell>
        <mxCell id="KA5vXZ2nPaFK-a-9JE_G-39" style="edgeStyle=orthogonalEdgeStyle;rounded=1;orthogonalLoop=1;jettySize=auto;html=1;entryX=0.968;entryY=0.496;entryDx=0;entryDy=0;fontFamily=Helvetica;fontSize=15;fontColor=default;endArrow=none;endFill=0;labelBackgroundColor=none;strokeColor=#A8201A;exitX=0.471;exitY=0.029;exitDx=0;exitDy=0;exitPerimeter=0;entryPerimeter=0;" parent="1" source="IGpdcPXpx3QODBAOmaDT-103" target="Dx_CMPOLSW68eJcPcujk-28" edge="1">
          <mxGeometry relative="1" as="geometry">
            <mxPoint x="1441" y="-1528" as="sourcePoint" />
            <mxPoint x="1285" y="-1241" as="targetPoint" />
            <Array as="points">
              <mxPoint x="1318" y="-835" />
            </Array>
          </mxGeometry>
        </mxCell>
        <mxCell id="KA5vXZ2nPaFK-a-9JE_G-40" value="" style="endArrow=none;html=1;rounded=0;entryX=0.5;entryY=1;entryDx=0;entryDy=0;entryPerimeter=0;exitX=0.5;exitY=0;exitDx=0;exitDy=0;labelBackgroundColor=none;strokeColor=#A8201A;fontColor=default;" parent="1" source="2ZxViYWchOxOmelXp1Hh-60" target="2ZxViYWchOxOmelXp1Hh-59" edge="1">
          <mxGeometry width="50" height="50" relative="1" as="geometry">
            <mxPoint x="1174" y="-673" as="sourcePoint" />
            <mxPoint x="1224" y="-723" as="targetPoint" />
          </mxGeometry>
        </mxCell>
        <mxCell id="KA5vXZ2nPaFK-a-9JE_G-41" value="" style="endArrow=none;html=1;rounded=0;entryX=0.5;entryY=1;entryDx=0;entryDy=0;exitX=0.5;exitY=0;exitDx=0;exitDy=0;exitPerimeter=0;labelBackgroundColor=none;strokeColor=#A8201A;fontColor=default;" parent="1" source="Dx_CMPOLSW68eJcPcujk-12" target="2ZxViYWchOxOmelXp1Hh-60" edge="1">
          <mxGeometry width="50" height="50" relative="1" as="geometry">
            <mxPoint x="1174" y="-939" as="sourcePoint" />
            <mxPoint x="1224" y="-989" as="targetPoint" />
          </mxGeometry>
        </mxCell>
        <mxCell id="KA5vXZ2nPaFK-a-9JE_G-42" value="" style="endArrow=none;html=1;rounded=0;entryX=0.25;entryY=1;entryDx=0;entryDy=0;entryPerimeter=0;exitX=0.5;exitY=0;exitDx=0;exitDy=0;labelBackgroundColor=none;strokeColor=#A8201A;fontColor=default;" parent="1" source="2ZxViYWchOxOmelXp1Hh-9" target="IGpdcPXpx3QODBAOmaDT-103" edge="1">
          <mxGeometry width="50" height="50" relative="1" as="geometry">
            <mxPoint x="1136" y="-758" as="sourcePoint" />
            <mxPoint x="1186" y="-808" as="targetPoint" />
          </mxGeometry>
        </mxCell>
        <mxCell id="KA5vXZ2nPaFK-a-9JE_G-44" value="" style="endArrow=none;html=1;rounded=0;exitX=0.493;exitY=0.971;exitDx=0;exitDy=0;labelBackgroundColor=none;strokeColor=#A8201A;fontColor=default;entryX=0.279;entryY=0.048;entryDx=0;entryDy=0;entryPerimeter=0;exitPerimeter=0;" parent="1" source="2ZxViYWchOxOmelXp1Hh-9" target="IGpdcPXpx3QODBAOmaDT-8" edge="1">
          <mxGeometry width="50" height="50" relative="1" as="geometry">
            <mxPoint x="1136" y="-758" as="sourcePoint" />
            <mxPoint x="1278" y="-468" as="targetPoint" />
          </mxGeometry>
        </mxCell>
        <mxCell id="KA5vXZ2nPaFK-a-9JE_G-47" value="" style="endArrow=none;html=1;rounded=0;entryX=0.505;entryY=0.947;entryDx=0;entryDy=0;labelBackgroundColor=none;strokeColor=#A8201A;fontColor=default;entryPerimeter=0;" parent="1" target="IGpdcPXpx3QODBAOmaDT-101" edge="1">
          <mxGeometry width="50" height="50" relative="1" as="geometry">
            <mxPoint x="1369" y="-465" as="sourcePoint" />
            <mxPoint x="1186" y="-808" as="targetPoint" />
          </mxGeometry>
        </mxCell>
        <mxCell id="KA5vXZ2nPaFK-a-9JE_G-49" value="" style="endArrow=none;html=1;rounded=0;entryX=0.49;entryY=0.053;entryDx=0;entryDy=0;exitX=0.75;exitY=1;exitDx=0;exitDy=0;exitPerimeter=0;labelBackgroundColor=none;strokeColor=#A8201A;fontColor=default;entryPerimeter=0;" parent="1" source="IGpdcPXpx3QODBAOmaDT-103" target="IGpdcPXpx3QODBAOmaDT-101" edge="1">
          <mxGeometry width="50" height="50" relative="1" as="geometry">
            <mxPoint x="1136" y="-758" as="sourcePoint" />
            <mxPoint x="1186" y="-808" as="targetPoint" />
          </mxGeometry>
        </mxCell>
        <mxCell id="KA5vXZ2nPaFK-a-9JE_G-50" value="" style="endArrow=none;html=1;rounded=0;exitX=1;exitY=0.5;exitDx=0;exitDy=0;exitPerimeter=0;entryX=0.055;entryY=0.479;entryDx=0;entryDy=0;labelBackgroundColor=none;strokeColor=#A8201A;fontColor=default;entryPerimeter=0;" parent="1" source="2ZxViYWchOxOmelXp1Hh-18" target="2ZxViYWchOxOmelXp1Hh-27" edge="1">
          <mxGeometry width="50" height="50" relative="1" as="geometry">
            <mxPoint x="1093.5" y="-447" as="sourcePoint" />
            <mxPoint x="1359" y="-811" as="targetPoint" />
          </mxGeometry>
        </mxCell>
        <mxCell id="KA5vXZ2nPaFK-a-9JE_G-52" style="edgeStyle=orthogonalEdgeStyle;rounded=1;orthogonalLoop=1;jettySize=auto;html=1;entryX=0.909;entryY=-0.062;entryDx=0;entryDy=0;entryPerimeter=0;fontFamily=Helvetica;fontSize=15;fontColor=default;endArrow=none;endFill=0;labelBackgroundColor=none;exitX=0;exitY=0.5;exitDx=0;exitDy=0;strokeColor=#A8201A;" parent="1" source="Dx_CMPOLSW68eJcPcujk-40" target="Dx_CMPOLSW68eJcPcujk-12" edge="1">
          <mxGeometry relative="1" as="geometry">
            <mxPoint x="1466" y="-1853" as="sourcePoint" />
            <mxPoint x="1310" y="-1566" as="targetPoint" />
            <Array as="points">
              <mxPoint x="825" y="-963" />
            </Array>
          </mxGeometry>
        </mxCell>
        <mxCell id="KA5vXZ2nPaFK-a-9JE_G-53" style="edgeStyle=orthogonalEdgeStyle;rounded=1;orthogonalLoop=1;jettySize=auto;html=1;entryX=1;entryY=0.5;entryDx=0;entryDy=0;fontFamily=Helvetica;fontSize=15;fontColor=default;endArrow=none;endFill=0;labelBackgroundColor=none;strokeColor=#A8201A;exitX=1;exitY=0.5;exitDx=0;exitDy=0;exitPerimeter=0;" parent="1" source="IGpdcPXpx3QODBAOmaDT-111" target="Dx_CMPOLSW68eJcPcujk-40" edge="1">
          <mxGeometry relative="1" as="geometry">
            <mxPoint x="1650" y="-775" as="sourcePoint" />
            <mxPoint x="1568" y="-1485" as="targetPoint" />
            <Array as="points">
              <mxPoint x="1621" y="-129" />
              <mxPoint x="1621" y="-960" />
            </Array>
          </mxGeometry>
        </mxCell>
        <mxCell id="KA5vXZ2nPaFK-a-9JE_G-56" style="edgeStyle=orthogonalEdgeStyle;rounded=1;orthogonalLoop=1;jettySize=auto;html=1;entryX=1;entryY=0.5;entryDx=0;entryDy=0;fontFamily=Helvetica;fontSize=15;fontColor=default;endArrow=none;endFill=0;labelBackgroundColor=none;exitX=0.25;exitY=1;exitDx=0;exitDy=0;strokeColor=#A8201A;exitPerimeter=0;" parent="1" source="IGpdcPXpx3QODBAOmaDT-8" edge="1">
          <mxGeometry relative="1" as="geometry">
            <mxPoint x="1330" y="-346" as="sourcePoint" />
            <mxPoint x="1093.5" y="-215.5" as="targetPoint" />
            <Array as="points">
              <mxPoint x="1270" y="-427" />
              <mxPoint x="1270" y="-215" />
            </Array>
          </mxGeometry>
        </mxCell>
        <mxCell id="KA5vXZ2nPaFK-a-9JE_G-61" style="edgeStyle=orthogonalEdgeStyle;rounded=1;orthogonalLoop=1;jettySize=auto;html=1;entryX=0;entryY=0.5;entryDx=0;entryDy=0;fontFamily=Helvetica;fontSize=15;fontColor=default;endArrow=none;endFill=0;labelBackgroundColor=none;exitX=0.75;exitY=1;exitDx=0;exitDy=0;strokeColor=#A8201A;exitPerimeter=0;" parent="1" source="IGpdcPXpx3QODBAOmaDT-12" target="Dx_CMPOLSW68eJcPcujk-1" edge="1">
          <mxGeometry relative="1" as="geometry">
            <mxPoint x="881" y="-317" as="sourcePoint" />
            <mxPoint x="725" y="-30" as="targetPoint" />
            <Array as="points">
              <mxPoint x="681" y="-216" />
            </Array>
          </mxGeometry>
        </mxCell>
        <mxCell id="KA5vXZ2nPaFK-a-9JE_G-63" value="Ciclo_Istruzione" style="text;html=1;align=center;verticalAlign=middle;resizable=0;points=[];autosize=1;strokeColor=none;fillColor=none;fontSize=15;fontFamily=Helvetica;labelBackgroundColor=none;rounded=1;fontColor=#143642;" parent="1" vertex="1">
          <mxGeometry x="1447" y="-505" width="125" height="30" as="geometry" />
        </mxCell>
        <mxCell id="KA5vXZ2nPaFK-a-9JE_G-64" value="cod_Meccanografico" style="text;html=1;align=center;verticalAlign=middle;resizable=0;points=[];autosize=1;strokeColor=none;fillColor=none;fontSize=15;fontFamily=Helvetica;labelBackgroundColor=none;rounded=1;fontColor=#143642;" parent="1" vertex="1">
          <mxGeometry x="1451" y="-377" width="160" height="30" as="geometry" />
        </mxCell>
        <mxCell id="KA5vXZ2nPaFK-a-9JE_G-65" value="Collabora" style="text;html=1;align=center;verticalAlign=middle;resizable=0;points=[];autosize=1;strokeColor=none;fillColor=none;fontSize=15;fontFamily=Helvetica;labelBackgroundColor=none;rounded=1;fontColor=#143642;" parent="1" vertex="1">
          <mxGeometry x="1424" y="-475" width="90" height="30" as="geometry" />
        </mxCell>
        <mxCell id="KA5vXZ2nPaFK-a-9JE_G-67" value="Tipo" style="text;html=1;align=center;verticalAlign=middle;resizable=0;points=[];autosize=1;strokeColor=none;fillColor=none;fontSize=15;fontFamily=Helvetica;labelBackgroundColor=none;rotation=0;rounded=1;fontColor=#143642;" parent="1" vertex="1">
          <mxGeometry x="1428.75" y="-450" width="50" height="30" as="geometry" />
        </mxCell>
        <mxCell id="KA5vXZ2nPaFK-a-9JE_G-68" value="Comune" style="text;html=1;align=center;verticalAlign=middle;resizable=0;points=[];autosize=1;strokeColor=none;fillColor=none;fontSize=15;fontFamily=Helvetica;labelBackgroundColor=none;rounded=1;fontColor=#143642;" parent="1" vertex="1">
          <mxGeometry x="1362.75" y="-540" width="80" height="30" as="geometry" />
        </mxCell>
        <mxCell id="KA5vXZ2nPaFK-a-9JE_G-77" style="edgeStyle=none;shape=connector;rounded=1;orthogonalLoop=1;jettySize=auto;html=1;exitX=0;exitY=0.75;exitDx=0;exitDy=0;labelBackgroundColor=none;fontFamily=Helvetica;fontSize=15;fontColor=default;endArrow=oval;endFill=0;strokeColor=#A8201A;entryX=0.55;entryY=0.011;entryDx=0;entryDy=0;entryPerimeter=0;exitPerimeter=0;" parent="1" source="9Mot5vRxFBjQDdBxqjVs-58" target="KA5vXZ2nPaFK-a-9JE_G-80" edge="1">
          <mxGeometry relative="1" as="geometry">
            <mxPoint x="-49" y="-263" as="targetPoint" />
            <mxPoint x="74.03805922287438" y="-504.85786437626916" as="sourcePoint" />
          </mxGeometry>
        </mxCell>
        <mxCell id="KA5vXZ2nPaFK-a-9JE_G-80" value="&lt;span style=&quot;font-size: 15px;&quot;&gt;Struttura&lt;/span&gt;" style="text;html=1;align=center;verticalAlign=middle;resizable=0;points=[];autosize=1;strokeColor=none;fillColor=none;fontSize=15;fontFamily=Helvetica;labelBackgroundColor=none;rounded=1;fontColor=#143642;" parent="1" vertex="1">
          <mxGeometry x="134" y="-641" width="80" height="30" as="geometry" />
        </mxCell>
        <mxCell id="KA5vXZ2nPaFK-a-9JE_G-83" style="edgeStyle=none;shape=connector;rounded=1;orthogonalLoop=1;jettySize=auto;html=1;entryX=0.995;entryY=0.686;entryDx=0;entryDy=0;entryPerimeter=0;labelBackgroundColor=none;fontFamily=Helvetica;fontSize=15;fontColor=default;endArrow=oval;endFill=0;strokeColor=#A8201A;exitX=0;exitY=0.5;exitDx=0;exitDy=0;exitPerimeter=0;" parent="1" source="9Mot5vRxFBjQDdBxqjVs-58" edge="1" target="KA5vXZ2nPaFK-a-9JE_G-87">
          <mxGeometry relative="1" as="geometry">
            <mxPoint x="226" y="-643" as="sourcePoint" />
            <mxPoint x="177.95000000000027" y="-657.4700000000003" as="targetPoint" />
            <Array as="points" />
          </mxGeometry>
        </mxCell>
        <mxCell id="KA5vXZ2nPaFK-a-9JE_G-84" style="edgeStyle=none;shape=connector;rounded=1;orthogonalLoop=1;jettySize=auto;html=1;labelBackgroundColor=none;fontFamily=Helvetica;fontSize=15;fontColor=default;endArrow=oval;endFill=0;entryX=0.818;entryY=1;entryDx=0;entryDy=0;entryPerimeter=0;strokeColor=#A8201A;exitX=0;exitY=0.25;exitDx=0;exitDy=0;exitPerimeter=0;" parent="1" source="9Mot5vRxFBjQDdBxqjVs-58" target="KA5vXZ2nPaFK-a-9JE_G-86" edge="1">
          <mxGeometry relative="1" as="geometry">
            <mxPoint x="193" y="-696" as="sourcePoint" />
          </mxGeometry>
        </mxCell>
        <mxCell id="KA5vXZ2nPaFK-a-9JE_G-86" value="&lt;span style=&quot;font-size: 15px;&quot;&gt;DataOra_Inserimento&lt;/span&gt;" style="text;html=1;align=center;verticalAlign=middle;resizable=0;points=[];autosize=1;strokeColor=none;fillColor=none;fontSize=15;fontFamily=Helvetica;labelBackgroundColor=none;rounded=1;fontColor=#143642;" parent="1" vertex="1">
          <mxGeometry x="59" y="-719" width="170" height="30" as="geometry" />
        </mxCell>
        <mxCell id="KA5vXZ2nPaFK-a-9JE_G-87" value="&lt;span style=&quot;font-size: 15px;&quot;&gt;DataOra_Rilevazione&lt;/span&gt;" style="text;html=1;align=center;verticalAlign=middle;resizable=0;points=[];autosize=1;strokeColor=none;fillColor=none;fontSize=15;fontFamily=Helvetica;labelBackgroundColor=none;rounded=1;fontColor=#143642;" parent="1" vertex="1">
          <mxGeometry x="6" y="-678" width="170" height="30" as="geometry" />
        </mxCell>
        <mxCell id="KA5vXZ2nPaFK-a-9JE_G-89" value="&lt;span style=&quot;font-size: 15px;&quot;&gt;ID&lt;/span&gt;" style="text;html=1;align=center;verticalAlign=middle;resizable=0;points=[];autosize=1;strokeColor=none;fillColor=none;fontSize=15;fontFamily=Helvetica;labelBackgroundColor=none;rounded=1;fontColor=#143642;arcSize=0;" parent="1" vertex="1">
          <mxGeometry x="217.5" y="-722" width="33" height="30" as="geometry" />
        </mxCell>
        <mxCell id="KA5vXZ2nPaFK-a-9JE_G-92" value="&lt;span style=&quot;font-size: 15px;&quot;&gt;Tipo&lt;/span&gt;" style="text;html=1;align=center;verticalAlign=middle;resizable=0;points=[];autosize=1;strokeColor=none;fillColor=none;fontSize=15;fontFamily=Helvetica;labelBackgroundColor=none;rounded=1;fontColor=#143642;" parent="1" vertex="1">
          <mxGeometry x="243" y="-921" width="50" height="30" as="geometry" />
        </mxCell>
        <mxCell id="KA5vXZ2nPaFK-a-9JE_G-93" value="&lt;span style=&quot;font-size: 15px;&quot;&gt;ID&lt;/span&gt;" style="text;html=1;align=center;verticalAlign=middle;resizable=0;points=[];autosize=1;strokeColor=none;fillColor=none;fontSize=15;fontFamily=Helvetica;labelBackgroundColor=none;rounded=1;fontColor=#143642;" parent="1" vertex="1">
          <mxGeometry x="165" y="-874" width="40" height="30" as="geometry" />
        </mxCell>
        <mxCell id="KA5vXZ2nPaFK-a-9JE_G-94" value="&lt;span style=&quot;font-size: 15px;&quot;&gt;Acquisizione&lt;br&gt;&lt;/span&gt;" style="text;html=1;align=center;verticalAlign=middle;resizable=0;points=[];autosize=1;strokeColor=none;fillColor=none;fontSize=15;fontFamily=Helvetica;labelBackgroundColor=none;rounded=1;fontColor=#143642;" parent="1" vertex="1">
          <mxGeometry x="257" y="-951" width="110" height="30" as="geometry" />
        </mxCell>
        <mxCell id="KA5vXZ2nPaFK-a-9JE_G-96" style="edgeStyle=none;shape=connector;rounded=1;orthogonalLoop=1;jettySize=auto;html=1;entryX=0.384;entryY=1.002;entryDx=0;entryDy=0;entryPerimeter=0;labelBackgroundColor=none;fontFamily=Helvetica;fontSize=15;fontColor=default;endArrow=oval;endFill=0;strokeColor=#A8201A;exitX=0.25;exitY=0;exitDx=0;exitDy=0;exitPerimeter=0;" parent="1" source="9Mot5vRxFBjQDdBxqjVs-103" target="KA5vXZ2nPaFK-a-9JE_G-92" edge="1">
          <mxGeometry relative="1" as="geometry">
            <mxPoint x="237.5" y="-920" as="sourcePoint" />
            <mxPoint x="131.5" y="-904" as="targetPoint" />
            <Array as="points" />
          </mxGeometry>
        </mxCell>
        <mxCell id="KA5vXZ2nPaFK-a-9JE_G-97" style="edgeStyle=none;shape=connector;rounded=1;orthogonalLoop=1;jettySize=auto;html=1;labelBackgroundColor=none;fontFamily=Helvetica;fontSize=15;fontColor=default;endArrow=oval;endFill=0;strokeColor=#A8201A;exitX=0.75;exitY=0;exitDx=0;exitDy=0;exitPerimeter=0;" parent="1" source="9Mot5vRxFBjQDdBxqjVs-103" target="KA5vXZ2nPaFK-a-9JE_G-94" edge="1">
          <mxGeometry relative="1" as="geometry">
            <mxPoint x="273" y="-869" as="sourcePoint" />
            <mxPoint x="315" y="-913" as="targetPoint" />
            <Array as="points" />
          </mxGeometry>
        </mxCell>
        <mxCell id="KA5vXZ2nPaFK-a-9JE_G-98" value="&lt;span style=&quot;font-size: 15px;&quot;&gt;ID&lt;/span&gt;" style="text;html=1;align=center;verticalAlign=middle;resizable=0;points=[];autosize=1;strokeColor=none;fillColor=none;fontSize=15;fontFamily=Helvetica;labelBackgroundColor=none;rounded=1;fontColor=#143642;" parent="1" vertex="1">
          <mxGeometry x="714.25" y="-1121" width="40" height="30" as="geometry" />
        </mxCell>
        <mxCell id="KA5vXZ2nPaFK-a-9JE_G-99" style="edgeStyle=none;shape=connector;rounded=1;orthogonalLoop=1;jettySize=auto;html=1;labelBackgroundColor=none;fontFamily=Helvetica;fontSize=15;fontColor=default;endArrow=oval;endFill=0;strokeColor=#A8201A;exitX=0.75;exitY=0;exitDx=0;exitDy=0;exitPerimeter=0;entryX=0.324;entryY=1.123;entryDx=0;entryDy=0;entryPerimeter=0;" parent="1" source="2ZxViYWchOxOmelXp1Hh-59" target="KA5vXZ2nPaFK-a-9JE_G-102" edge="1">
          <mxGeometry relative="1" as="geometry">
            <mxPoint x="784" y="-1069" as="sourcePoint" />
            <mxPoint x="785" y="-1089" as="targetPoint" />
            <Array as="points" />
          </mxGeometry>
        </mxCell>
        <mxCell id="KA5vXZ2nPaFK-a-9JE_G-102" value="&lt;span style=&quot;font-size: 15px;&quot;&gt;Tipo&lt;/span&gt;" style="text;html=1;align=center;verticalAlign=middle;resizable=0;points=[];autosize=1;strokeColor=none;fillColor=none;fontSize=15;fontFamily=Helvetica;labelBackgroundColor=none;rounded=1;fontColor=#143642;" parent="1" vertex="1">
          <mxGeometry x="769" y="-1128" width="50" height="30" as="geometry" />
        </mxCell>
        <mxCell id="KA5vXZ2nPaFK-a-9JE_G-104" value="&lt;span style=&quot;font-size: 15px;&quot;&gt;ID&lt;/span&gt;" style="text;html=1;align=center;verticalAlign=middle;resizable=0;points=[];autosize=1;strokeColor=none;fillColor=none;fontSize=15;fontFamily=Helvetica;labelBackgroundColor=none;rounded=1;fontColor=#143642;arcSize=0;rotation=0;" parent="1" vertex="1">
          <mxGeometry x="689.5" y="-788" width="40" height="30" as="geometry" />
        </mxCell>
        <mxCell id="KA5vXZ2nPaFK-a-9JE_G-110" style="edgeStyle=none;shape=connector;rounded=1;orthogonalLoop=1;jettySize=auto;html=1;labelBackgroundColor=none;fontFamily=Helvetica;fontSize=15;fontColor=default;endArrow=oval;endFill=1;strokeColor=#A8201A;exitX=0.25;exitY=1;exitDx=0;exitDy=0;exitPerimeter=0;entryX=0.774;entryY=0.041;entryDx=0;entryDy=0;entryPerimeter=0;" parent="1" source="Dx_CMPOLSW68eJcPcujk-12" target="KA5vXZ2nPaFK-a-9JE_G-104" edge="1">
          <mxGeometry relative="1" as="geometry">
            <mxPoint x="711.9600000000003" y="-817.88" as="sourcePoint" />
            <mxPoint x="719" y="-789" as="targetPoint" />
          </mxGeometry>
        </mxCell>
        <mxCell id="KA5vXZ2nPaFK-a-9JE_G-115" style="edgeStyle=none;shape=connector;rounded=1;orthogonalLoop=1;jettySize=auto;html=1;exitX=0.25;exitY=0;exitDx=0;exitDy=0;exitPerimeter=0;labelBackgroundColor=none;fontFamily=Helvetica;fontSize=15;fontColor=default;endArrow=oval;endFill=1;strokeColor=#A8201A;entryX=0.537;entryY=1.033;entryDx=0;entryDy=0;entryPerimeter=0;" parent="1" source="2ZxViYWchOxOmelXp1Hh-59" target="KA5vXZ2nPaFK-a-9JE_G-98" edge="1">
          <mxGeometry relative="1" as="geometry">
            <mxPoint x="410" y="-1291" as="sourcePoint" />
            <mxPoint x="454" y="-1295" as="targetPoint" />
          </mxGeometry>
        </mxCell>
        <mxCell id="KA5vXZ2nPaFK-a-9JE_G-133" style="edgeStyle=none;shape=connector;rounded=1;orthogonalLoop=1;jettySize=auto;html=1;labelBackgroundColor=none;fontFamily=Helvetica;fontSize=15;fontColor=default;endArrow=oval;endFill=0;strokeColor=#A8201A;entryX=0.627;entryY=-0.002;entryDx=0;entryDy=0;entryPerimeter=0;exitX=0.087;exitY=1.028;exitDx=0;exitDy=0;exitPerimeter=0;" parent="1" source="Dx_CMPOLSW68eJcPcujk-12" target="KA5vXZ2nPaFK-a-9JE_G-135" edge="1">
          <mxGeometry relative="1" as="geometry">
            <mxPoint x="681" y="-857" as="sourcePoint" />
            <mxPoint x="689" y="-892" as="targetPoint" />
          </mxGeometry>
        </mxCell>
        <mxCell id="KA5vXZ2nPaFK-a-9JE_G-134" style="edgeStyle=none;shape=connector;rounded=1;orthogonalLoop=1;jettySize=auto;html=1;labelBackgroundColor=none;fontFamily=Helvetica;fontSize=15;fontColor=default;endArrow=oval;endFill=0;strokeColor=#A8201A;exitX=0.324;exitY=-0.004;exitDx=0;exitDy=0;exitPerimeter=0;entryX=0.433;entryY=1.015;entryDx=0;entryDy=0;entryPerimeter=0;" parent="1" source="Dx_CMPOLSW68eJcPcujk-12" target="KA5vXZ2nPaFK-a-9JE_G-136" edge="1">
          <mxGeometry relative="1" as="geometry">
            <mxPoint x="726.25" y="-862" as="sourcePoint" />
            <mxPoint x="714.25" y="-898" as="targetPoint" />
          </mxGeometry>
        </mxCell>
        <mxCell id="KA5vXZ2nPaFK-a-9JE_G-135" value="&lt;span style=&quot;font-size: 15px;&quot;&gt;Scopo&lt;br&gt;&lt;/span&gt;" style="text;html=1;align=center;verticalAlign=middle;resizable=0;points=[];autosize=1;strokeColor=none;fillColor=none;fontSize=15;fontFamily=Helvetica;labelBackgroundColor=none;rounded=1;fontColor=#143642;arcSize=0;rotation=0;" parent="1" vertex="1">
          <mxGeometry x="637" y="-788" width="61" height="30" as="geometry" />
        </mxCell>
        <mxCell id="KA5vXZ2nPaFK-a-9JE_G-136" value="&lt;span style=&quot;font-size: 15px;&quot;&gt;Mezz&#39;Ombra&lt;br&gt;&lt;/span&gt;" style="text;html=1;align=center;verticalAlign=middle;resizable=0;points=[];autosize=1;strokeColor=none;fillColor=none;fontSize=15;fontFamily=Helvetica;labelBackgroundColor=none;rounded=1;fontColor=#143642;arcSize=0;rotation=0;" parent="1" vertex="1">
          <mxGeometry x="658" y="-927" width="103" height="30" as="geometry" />
        </mxCell>
        <mxCell id="KA5vXZ2nPaFK-a-9JE_G-137" value="Data_Messa_A_Dimora" style="text;html=1;align=center;verticalAlign=middle;resizable=0;points=[];autosize=1;strokeColor=none;fillColor=none;fontSize=15;fontFamily=Helvetica;labelBackgroundColor=none;rounded=1;fontColor=#143642;" parent="1" vertex="1">
          <mxGeometry x="783" y="-802" width="177" height="30" as="geometry" />
        </mxCell>
        <mxCell id="KA5vXZ2nPaFK-a-9JE_G-138" style="edgeStyle=none;shape=connector;rounded=1;orthogonalLoop=1;jettySize=auto;html=1;labelBackgroundColor=none;fontFamily=Helvetica;fontSize=15;fontColor=default;endArrow=oval;endFill=0;strokeColor=#A8201A;entryX=0.39;entryY=0.11;entryDx=0;entryDy=0;entryPerimeter=0;" parent="1" target="KA5vXZ2nPaFK-a-9JE_G-137" edge="1">
          <mxGeometry relative="1" as="geometry">
            <mxPoint x="773" y="-818" as="sourcePoint" />
            <mxPoint x="1032" y="-778" as="targetPoint" />
            <Array as="points" />
          </mxGeometry>
        </mxCell>
        <mxCell id="KA5vXZ2nPaFK-a-9JE_G-139" style="edgeStyle=none;shape=connector;rounded=1;orthogonalLoop=1;jettySize=auto;html=1;labelBackgroundColor=none;fontFamily=Helvetica;fontSize=15;fontColor=default;endArrow=oval;endFill=0;strokeColor=#A8201A;entryX=0.038;entryY=0.251;entryDx=0;entryDy=0;entryPerimeter=0;" parent="1" target="KA5vXZ2nPaFK-a-9JE_G-140" edge="1">
          <mxGeometry relative="1" as="geometry">
            <mxPoint x="839" y="-821" as="sourcePoint" />
            <mxPoint x="874" y="-818" as="targetPoint" />
            <Array as="points" />
          </mxGeometry>
        </mxCell>
        <mxCell id="KA5vXZ2nPaFK-a-9JE_G-140" value="Nome_Comune" style="text;html=1;align=center;verticalAlign=middle;resizable=0;points=[];autosize=1;strokeColor=none;fillColor=none;fontSize=15;fontFamily=Helvetica;labelBackgroundColor=none;rounded=1;fontColor=#143642;" parent="1" vertex="1">
          <mxGeometry x="873" y="-832" width="123" height="30" as="geometry" />
        </mxCell>
        <mxCell id="KA5vXZ2nPaFK-a-9JE_G-142" style="edgeStyle=none;shape=connector;rounded=1;orthogonalLoop=1;jettySize=auto;html=1;labelBackgroundColor=none;fontFamily=Helvetica;fontSize=15;fontColor=default;endArrow=oval;endFill=1;strokeColor=#A8201A;exitX=0.117;exitY=1.006;exitDx=0;exitDy=0;exitPerimeter=0;entryX=0.679;entryY=-0.143;entryDx=0;entryDy=0;entryPerimeter=0;" parent="1" source="2ZxViYWchOxOmelXp1Hh-42" target="KA5vXZ2nPaFK-a-9JE_G-143" edge="1">
          <mxGeometry relative="1" as="geometry">
            <mxPoint x="873" y="-654" as="sourcePoint" />
            <mxPoint x="869" y="-625" as="targetPoint" />
          </mxGeometry>
        </mxCell>
        <mxCell id="KA5vXZ2nPaFK-a-9JE_G-143" value="&lt;span style=&quot;font-size: 15px;&quot;&gt;Nome_Scientifico&lt;/span&gt;" style="text;html=1;align=center;verticalAlign=middle;resizable=0;points=[];autosize=1;strokeColor=none;fillColor=none;fontSize=15;fontFamily=Helvetica;labelBackgroundColor=none;rounded=1;fontColor=#143642;arcSize=0;rotation=0;" parent="1" vertex="1">
          <mxGeometry x="778.25" y="-639" width="135" height="30" as="geometry" />
        </mxCell>
        <mxCell id="KA5vXZ2nPaFK-a-9JE_G-144" style="edgeStyle=none;shape=connector;rounded=1;orthogonalLoop=1;jettySize=auto;html=1;labelBackgroundColor=none;fontFamily=Helvetica;fontSize=15;fontColor=default;endArrow=oval;endFill=0;strokeColor=#A8201A;entryX=0.463;entryY=-0.027;entryDx=0;entryDy=0;entryPerimeter=0;exitX=0.68;exitY=0.988;exitDx=0;exitDy=0;exitPerimeter=0;" parent="1" source="2ZxViYWchOxOmelXp1Hh-42" target="KA5vXZ2nPaFK-a-9JE_G-145" edge="1">
          <mxGeometry relative="1" as="geometry">
            <mxPoint x="986" y="-655" as="sourcePoint" />
            <mxPoint x="987" y="-612" as="targetPoint" />
            <Array as="points" />
          </mxGeometry>
        </mxCell>
        <mxCell id="KA5vXZ2nPaFK-a-9JE_G-145" value="&lt;span style=&quot;font-size: 15px;&quot;&gt;Substrato&lt;br&gt;&lt;/span&gt;" style="text;html=1;align=center;verticalAlign=middle;resizable=0;points=[];autosize=1;strokeColor=none;fillColor=none;fontSize=15;fontFamily=Helvetica;labelBackgroundColor=none;rounded=1;fontColor=#143642;arcSize=0;rotation=0;" parent="1" vertex="1">
          <mxGeometry x="922" y="-640" width="82" height="30" as="geometry" />
        </mxCell>
        <mxCell id="KA5vXZ2nPaFK-a-9JE_G-151" style="edgeStyle=none;shape=connector;rounded=1;orthogonalLoop=1;jettySize=auto;html=1;labelBackgroundColor=none;fontFamily=Helvetica;fontSize=15;fontColor=default;endArrow=oval;endFill=0;entryX=0.076;entryY=0.475;entryDx=0;entryDy=0;entryPerimeter=0;strokeColor=#A8201A;exitX=1;exitY=0.5;exitDx=0;exitDy=0;exitPerimeter=0;" parent="1" source="IGpdcPXpx3QODBAOmaDT-103" target="KA5vXZ2nPaFK-a-9JE_G-161" edge="1">
          <mxGeometry relative="1" as="geometry">
            <mxPoint x="1491" y="-759" as="sourcePoint" />
            <mxPoint x="1545" y="-818" as="targetPoint" />
          </mxGeometry>
        </mxCell>
        <mxCell id="KA5vXZ2nPaFK-a-9JE_G-152" style="edgeStyle=none;shape=connector;rounded=1;orthogonalLoop=1;jettySize=auto;html=1;exitX=1;exitY=0.75;exitDx=0;exitDy=0;exitPerimeter=0;labelBackgroundColor=none;fontFamily=Helvetica;fontSize=15;fontColor=default;endArrow=oval;endFill=0;entryX=0.002;entryY=0.459;entryDx=0;entryDy=0;entryPerimeter=0;strokeColor=#A8201A;" parent="1" source="IGpdcPXpx3QODBAOmaDT-103" target="KA5vXZ2nPaFK-a-9JE_G-155" edge="1">
          <mxGeometry relative="1" as="geometry">
            <mxPoint x="1579" y="-820" as="targetPoint" />
          </mxGeometry>
        </mxCell>
        <mxCell id="KA5vXZ2nPaFK-a-9JE_G-153" style="edgeStyle=none;shape=connector;rounded=1;orthogonalLoop=1;jettySize=auto;html=1;labelBackgroundColor=none;fontFamily=Helvetica;fontSize=15;fontColor=default;endArrow=oval;endFill=0;entryX=-0.023;entryY=0.498;entryDx=0;entryDy=0;entryPerimeter=0;strokeColor=#A8201A;exitX=0.75;exitY=0;exitDx=0;exitDy=0;exitPerimeter=0;" parent="1" source="IGpdcPXpx3QODBAOmaDT-103" target="KA5vXZ2nPaFK-a-9JE_G-158" edge="1">
          <mxGeometry relative="1" as="geometry">
            <mxPoint x="1370" y="-710" as="sourcePoint" />
            <mxPoint x="1535" y="-850" as="targetPoint" />
          </mxGeometry>
        </mxCell>
        <mxCell id="KA5vXZ2nPaFK-a-9JE_G-154" value="Collocazione" style="text;html=1;align=center;verticalAlign=middle;resizable=0;points=[];autosize=1;strokeColor=none;fillColor=none;fontSize=15;fontFamily=Helvetica;labelBackgroundColor=none;rounded=1;fontColor=#143642;" parent="1" vertex="1">
          <mxGeometry x="1317" y="-792" width="110" height="30" as="geometry" />
        </mxCell>
        <mxCell id="KA5vXZ2nPaFK-a-9JE_G-155" value="Coodinate_GPS" style="text;html=1;align=center;verticalAlign=middle;resizable=0;points=[];autosize=1;strokeColor=none;fillColor=none;fontSize=15;fontFamily=Helvetica;labelBackgroundColor=none;rounded=1;fontColor=#143642;" parent="1" vertex="1">
          <mxGeometry x="1453.5" y="-665" width="130" height="30" as="geometry" />
        </mxCell>
        <mxCell id="KA5vXZ2nPaFK-a-9JE_G-156" value="Superficie_mq" style="text;html=1;align=center;verticalAlign=middle;resizable=0;points=[];autosize=1;strokeColor=none;fillColor=none;fontSize=15;fontFamily=Helvetica;labelBackgroundColor=none;rounded=1;fontColor=#143642;" parent="1" vertex="1">
          <mxGeometry x="1348" y="-769" width="120" height="30" as="geometry" />
        </mxCell>
        <mxCell id="KA5vXZ2nPaFK-a-9JE_G-158" value="Condizione_Ambientale" style="text;html=1;align=center;verticalAlign=middle;resizable=0;points=[];autosize=1;strokeColor=none;fillColor=none;fontSize=15;fontFamily=Helvetica;labelBackgroundColor=none;rounded=1;fontColor=#143642;" parent="1" vertex="1">
          <mxGeometry x="1374" y="-746" width="180" height="30" as="geometry" />
        </mxCell>
        <mxCell id="KA5vXZ2nPaFK-a-9JE_G-159" style="edgeStyle=none;rounded=1;orthogonalLoop=1;jettySize=auto;html=1;endArrow=oval;endFill=1;labelBackgroundColor=none;fontFamily=Helvetica;fontSize=15;fontColor=default;shape=connector;strokeColor=#A8201A;" parent="1" edge="1">
          <mxGeometry relative="1" as="geometry">
            <mxPoint x="1431" y="-699" as="targetPoint" />
            <mxPoint x="1430" y="-634" as="sourcePoint" />
          </mxGeometry>
        </mxCell>
        <mxCell id="KA5vXZ2nPaFK-a-9JE_G-160" style="edgeStyle=none;shape=connector;rounded=1;orthogonalLoop=1;jettySize=auto;html=1;exitX=0.663;exitY=-0.042;exitDx=0;exitDy=0;exitPerimeter=0;labelBackgroundColor=none;fontFamily=Helvetica;fontSize=15;fontColor=default;endArrow=oval;endFill=0;entryX=0.042;entryY=0.911;entryDx=0;entryDy=0;entryPerimeter=0;strokeColor=#A8201A;" parent="1" source="IGpdcPXpx3QODBAOmaDT-103" target="KA5vXZ2nPaFK-a-9JE_G-156" edge="1">
          <mxGeometry relative="1" as="geometry">
            <mxPoint x="1481" y="-819" as="sourcePoint" />
            <mxPoint x="1535" y="-830" as="targetPoint" />
          </mxGeometry>
        </mxCell>
        <mxCell id="KA5vXZ2nPaFK-a-9JE_G-161" value="Nome" style="text;html=1;align=center;verticalAlign=middle;resizable=0;points=[];autosize=1;strokeColor=none;fillColor=none;fontSize=15;fontFamily=Helvetica;labelBackgroundColor=none;rounded=1;fontColor=#143642;" parent="1" vertex="1">
          <mxGeometry x="1451" y="-691" width="60" height="30" as="geometry" />
        </mxCell>
        <mxCell id="KA5vXZ2nPaFK-a-9JE_G-162" style="edgeStyle=none;shape=connector;rounded=1;orthogonalLoop=1;jettySize=auto;html=1;exitX=0.87;exitY=0.025;exitDx=0;exitDy=0;exitPerimeter=0;labelBackgroundColor=none;fontFamily=Helvetica;fontSize=15;fontColor=default;endArrow=oval;endFill=0;strokeColor=#A8201A;entryX=0.279;entryY=1.068;entryDx=0;entryDy=0;entryPerimeter=0;" parent="1" source="IGpdcPXpx3QODBAOmaDT-8" target="KA5vXZ2nPaFK-a-9JE_G-68" edge="1">
          <mxGeometry relative="1" as="geometry">
            <mxPoint x="1404" y="-558" as="sourcePoint" />
            <mxPoint x="1381" y="-494" as="targetPoint" />
          </mxGeometry>
        </mxCell>
        <mxCell id="KA5vXZ2nPaFK-a-9JE_G-163" style="edgeStyle=none;shape=connector;rounded=1;orthogonalLoop=1;jettySize=auto;html=1;exitX=0.985;exitY=0.027;exitDx=0;exitDy=0;exitPerimeter=0;labelBackgroundColor=none;fontFamily=Helvetica;fontSize=15;fontColor=default;endArrow=oval;endFill=0;entryX=-0.019;entryY=0.495;entryDx=0;entryDy=0;entryPerimeter=0;strokeColor=#A8201A;" parent="1" source="IGpdcPXpx3QODBAOmaDT-8" target="KA5vXZ2nPaFK-a-9JE_G-63" edge="1">
          <mxGeometry relative="1" as="geometry">
            <mxPoint x="1395" y="-453" as="sourcePoint" />
            <mxPoint x="1401" y="-488" as="targetPoint" />
          </mxGeometry>
        </mxCell>
        <mxCell id="KA5vXZ2nPaFK-a-9JE_G-164" style="edgeStyle=none;shape=connector;rounded=1;orthogonalLoop=1;jettySize=auto;html=1;exitX=1;exitY=0.25;exitDx=0;exitDy=0;exitPerimeter=0;labelBackgroundColor=none;fontFamily=Helvetica;fontSize=15;fontColor=default;endArrow=oval;endFill=0;entryX=0.016;entryY=0.51;entryDx=0;entryDy=0;entryPerimeter=0;strokeColor=#A8201A;" parent="1" source="IGpdcPXpx3QODBAOmaDT-8" target="KA5vXZ2nPaFK-a-9JE_G-65" edge="1">
          <mxGeometry relative="1" as="geometry">
            <mxPoint x="1419" y="-434" as="sourcePoint" />
            <mxPoint x="1524" y="-430" as="targetPoint" />
          </mxGeometry>
        </mxCell>
        <mxCell id="KA5vXZ2nPaFK-a-9JE_G-165" style="edgeStyle=none;shape=connector;rounded=1;orthogonalLoop=1;jettySize=auto;html=1;labelBackgroundColor=none;fontFamily=Helvetica;fontSize=15;fontColor=default;endArrow=oval;endFill=0;entryX=0.021;entryY=0.538;entryDx=0;entryDy=0;entryPerimeter=0;strokeColor=#A8201A;exitX=1;exitY=0.75;exitDx=0;exitDy=0;exitPerimeter=0;" parent="1" source="IGpdcPXpx3QODBAOmaDT-8" target="KA5vXZ2nPaFK-a-9JE_G-67" edge="1">
          <mxGeometry relative="1" as="geometry">
            <mxPoint x="1400" y="-429" as="sourcePoint" />
            <mxPoint x="1465" y="-403" as="targetPoint" />
          </mxGeometry>
        </mxCell>
        <mxCell id="KA5vXZ2nPaFK-a-9JE_G-167" style="edgeStyle=none;rounded=1;orthogonalLoop=1;jettySize=auto;html=1;endArrow=oval;endFill=1;labelBackgroundColor=none;fontFamily=Helvetica;fontSize=15;fontColor=default;shape=connector;strokeColor=#A8201A;entryX=0.001;entryY=0.552;entryDx=0;entryDy=0;entryPerimeter=0;exitX=0.816;exitY=1.015;exitDx=0;exitDy=0;exitPerimeter=0;" parent="1" source="IGpdcPXpx3QODBAOmaDT-8" target="KA5vXZ2nPaFK-a-9JE_G-64" edge="1">
          <mxGeometry relative="1" as="geometry">
            <mxPoint x="1467" y="-592" as="targetPoint" />
            <mxPoint x="1393" y="-462" as="sourcePoint" />
          </mxGeometry>
        </mxCell>
        <mxCell id="KA5vXZ2nPaFK-a-9JE_G-168" style="edgeStyle=none;shape=connector;rounded=1;orthogonalLoop=1;jettySize=auto;html=1;labelBackgroundColor=none;fontFamily=Helvetica;fontSize=15;fontColor=default;endArrow=oval;endFill=0;strokeColor=#A8201A;entryX=0.199;entryY=0.958;entryDx=0;entryDy=0;entryPerimeter=0;exitX=0.895;exitY=-0.029;exitDx=0;exitDy=0;exitPerimeter=0;" parent="1" source="IGpdcPXpx3QODBAOmaDT-8" target="KA5vXZ2nPaFK-a-9JE_G-169" edge="1">
          <mxGeometry relative="1" as="geometry">
            <mxPoint x="1400" y="-463" as="sourcePoint" />
            <mxPoint x="1462" y="-477" as="targetPoint" />
          </mxGeometry>
        </mxCell>
        <mxCell id="KA5vXZ2nPaFK-a-9JE_G-169" value="Provincia" style="text;html=1;align=center;verticalAlign=middle;resizable=0;points=[];autosize=1;strokeColor=none;fillColor=none;fontSize=15;fontFamily=Helvetica;labelBackgroundColor=none;rounded=1;fontColor=#143642;" parent="1" vertex="1">
          <mxGeometry x="1431" y="-540" width="80" height="30" as="geometry" />
        </mxCell>
        <mxCell id="KA5vXZ2nPaFK-a-9JE_G-172" style="edgeStyle=none;shape=connector;rounded=1;orthogonalLoop=1;jettySize=auto;html=1;exitX=0.554;exitY=-0.004;exitDx=0;exitDy=0;exitPerimeter=0;labelBackgroundColor=none;fontFamily=Helvetica;fontSize=15;fontColor=default;endArrow=oval;endFill=0;entryX=0.153;entryY=0.971;entryDx=0;entryDy=0;entryPerimeter=0;strokeColor=#A8201A;" parent="1" source="IGpdcPXpx3QODBAOmaDT-103" target="KA5vXZ2nPaFK-a-9JE_G-154" edge="1">
          <mxGeometry relative="1" as="geometry">
            <mxPoint x="1358" y="-688" as="sourcePoint" />
            <mxPoint x="1360" y="-752" as="targetPoint" />
          </mxGeometry>
        </mxCell>
        <mxCell id="KA5vXZ2nPaFK-a-9JE_G-173" style="edgeStyle=none;rounded=1;orthogonalLoop=1;jettySize=auto;html=1;endArrow=oval;endFill=1;labelBackgroundColor=none;fontFamily=Helvetica;fontSize=15;fontColor=default;shape=connector;strokeColor=#A8201A;" parent="1" edge="1">
          <mxGeometry relative="1" as="geometry">
            <mxPoint x="1435" y="-142" as="targetPoint" />
            <mxPoint x="1437" y="-404" as="sourcePoint" />
          </mxGeometry>
        </mxCell>
        <mxCell id="KA5vXZ2nPaFK-a-9JE_G-174" style="edgeStyle=none;shape=connector;rounded=1;orthogonalLoop=1;jettySize=auto;html=1;labelBackgroundColor=none;fontFamily=Helvetica;fontSize=15;fontColor=default;endArrow=oval;endFill=0;entryX=0.495;entryY=1.088;entryDx=0;entryDy=0;entryPerimeter=0;exitX=0.5;exitY=0;exitDx=0;exitDy=0;exitPerimeter=0;strokeColor=#A8201A;" parent="1" source="IGpdcPXpx3QODBAOmaDT-12" target="KA5vXZ2nPaFK-a-9JE_G-178" edge="1">
          <mxGeometry relative="1" as="geometry">
            <mxPoint x="693.5" y="-617" as="sourcePoint" />
            <mxPoint x="693.0799999999999" y="-601.03" as="targetPoint" />
          </mxGeometry>
        </mxCell>
        <mxCell id="KA5vXZ2nPaFK-a-9JE_G-175" style="edgeStyle=none;shape=connector;rounded=1;orthogonalLoop=1;jettySize=auto;html=1;exitX=0.95;exitY=0;exitDx=0;exitDy=0;exitPerimeter=0;labelBackgroundColor=none;fontFamily=Helvetica;fontSize=15;fontColor=default;endArrow=oval;endFill=0;strokeColor=#A8201A;" parent="1" source="IGpdcPXpx3QODBAOmaDT-12" target="KA5vXZ2nPaFK-a-9JE_G-179" edge="1">
          <mxGeometry relative="1" as="geometry">
            <mxPoint x="724.9000000000001" y="-616.8800000000001" as="sourcePoint" />
            <mxPoint x="725.7" y="-580.31" as="targetPoint" />
          </mxGeometry>
        </mxCell>
        <mxCell id="KA5vXZ2nPaFK-a-9JE_G-176" style="edgeStyle=none;shape=connector;rounded=1;orthogonalLoop=1;jettySize=auto;html=1;labelBackgroundColor=none;fontFamily=Helvetica;fontSize=15;fontColor=default;endArrow=oval;endFill=0;strokeColor=#A8201A;" parent="1" target="KA5vXZ2nPaFK-a-9JE_G-181" edge="1">
          <mxGeometry relative="1" as="geometry">
            <mxPoint x="623" y="-468" as="sourcePoint" />
          </mxGeometry>
        </mxCell>
        <mxCell id="KA5vXZ2nPaFK-a-9JE_G-178" value="Nome" style="text;html=1;align=center;verticalAlign=middle;resizable=0;points=[];autosize=1;strokeColor=none;fillColor=none;fontSize=15;fontFamily=Helvetica;labelBackgroundColor=none;rounded=1;fontColor=#143642;" parent="1" vertex="1">
          <mxGeometry x="634.75" y="-527" width="60" height="30" as="geometry" />
        </mxCell>
        <mxCell id="KA5vXZ2nPaFK-a-9JE_G-179" value="Cognome" style="text;html=1;align=center;verticalAlign=middle;resizable=0;points=[];autosize=1;strokeColor=none;fillColor=none;fontSize=15;fontFamily=Helvetica;labelBackgroundColor=none;rounded=1;fontColor=#143642;" parent="1" vertex="1">
          <mxGeometry x="704" y="-509" width="90" height="30" as="geometry" />
        </mxCell>
        <mxCell id="KA5vXZ2nPaFK-a-9JE_G-181" value="Telefono" style="text;html=1;align=center;verticalAlign=middle;resizable=0;points=[];autosize=1;strokeColor=none;fillColor=none;fontSize=15;fontFamily=Helvetica;labelBackgroundColor=none;rounded=1;fontColor=#143642;" parent="1" vertex="1">
          <mxGeometry x="565" y="-539" width="80" height="30" as="geometry" />
        </mxCell>
        <mxCell id="KA5vXZ2nPaFK-a-9JE_G-182" value="0,1" style="text;html=1;align=center;verticalAlign=middle;resizable=0;points=[];autosize=1;strokeColor=none;fillColor=none;fontSize=15;fontFamily=Helvetica;rounded=1;labelBackgroundColor=none;fontColor=#143642;" parent="1" vertex="1">
          <mxGeometry x="611" y="-501" width="40" height="30" as="geometry" />
        </mxCell>
        <mxCell id="KA5vXZ2nPaFK-a-9JE_G-186" value="Email" style="text;html=1;align=center;verticalAlign=middle;resizable=0;points=[];autosize=1;strokeColor=none;fillColor=none;fontSize=15;fontFamily=Helvetica;labelBackgroundColor=none;rounded=1;fontColor=#143642;" parent="1" vertex="1">
          <mxGeometry x="690" y="-539" width="56" height="30" as="geometry" />
        </mxCell>
        <mxCell id="KA5vXZ2nPaFK-a-9JE_G-187" style="edgeStyle=none;shape=connector;rounded=1;orthogonalLoop=1;jettySize=auto;html=1;labelBackgroundColor=none;fontFamily=Helvetica;fontSize=15;fontColor=default;endArrow=oval;endFill=1;strokeColor=#A8201A;entryX=0.368;entryY=1.01;entryDx=0;entryDy=0;entryPerimeter=0;" parent="1" target="KA5vXZ2nPaFK-a-9JE_G-186" edge="1">
          <mxGeometry relative="1" as="geometry">
            <mxPoint x="674" y="-466" as="sourcePoint" />
            <mxPoint x="880" y="-649" as="targetPoint" />
          </mxGeometry>
        </mxCell>
        <mxCell id="KA5vXZ2nPaFK-a-9JE_G-188" value="0,1" style="text;html=1;align=center;verticalAlign=middle;resizable=0;points=[];autosize=1;strokeColor=none;fillColor=none;fontSize=15;fontFamily=Helvetica;rounded=1;labelBackgroundColor=none;fontColor=#143642;" parent="1" vertex="1">
          <mxGeometry x="999" y="-425" width="40" height="30" as="geometry" />
        </mxCell>
        <mxCell id="KA5vXZ2nPaFK-a-9JE_G-194" value="ID" style="text;html=1;align=center;verticalAlign=middle;resizable=0;points=[];autosize=1;strokeColor=none;fillColor=none;fontSize=14;labelBackgroundColor=none;rounded=1;fontColor=#143642;" parent="1" vertex="1">
          <mxGeometry x="917.5" y="-414" width="40" height="30" as="geometry" />
        </mxCell>
        <mxCell id="KA5vXZ2nPaFK-a-9JE_G-196" value="Nome" style="text;html=1;align=center;verticalAlign=middle;resizable=0;points=[];autosize=1;strokeColor=none;fillColor=none;fontSize=14;labelBackgroundColor=none;rounded=1;fontColor=#143642;" parent="1" vertex="1">
          <mxGeometry x="1027" y="-406" width="60" height="30" as="geometry" />
        </mxCell>
        <mxCell id="KA5vXZ2nPaFK-a-9JE_G-201" style="edgeStyle=none;shape=connector;rounded=1;orthogonalLoop=1;jettySize=auto;html=1;labelBackgroundColor=none;fontFamily=Helvetica;fontSize=15;fontColor=default;endArrow=oval;endFill=1;strokeColor=#A8201A;entryX=0.625;entryY=0.059;entryDx=0;entryDy=0;entryPerimeter=0;exitX=0.111;exitY=0.996;exitDx=0;exitDy=0;exitPerimeter=0;" parent="1" source="2ZxViYWchOxOmelXp1Hh-18" target="KA5vXZ2nPaFK-a-9JE_G-194" edge="1">
          <mxGeometry relative="1" as="geometry">
            <mxPoint x="667" y="-379" as="sourcePoint" />
            <mxPoint x="704" y="-422" as="targetPoint" />
          </mxGeometry>
        </mxCell>
        <mxCell id="KA5vXZ2nPaFK-a-9JE_G-202" value="0,1" style="text;html=1;align=center;verticalAlign=middle;resizable=0;points=[];autosize=1;strokeColor=none;fillColor=none;fontSize=15;fontFamily=Helvetica;rounded=1;labelBackgroundColor=none;fontColor=#143642;" parent="1" vertex="1">
          <mxGeometry x="621" y="-427" width="40" height="30" as="geometry" />
        </mxCell>
        <mxCell id="KA5vXZ2nPaFK-a-9JE_G-203" value="0,N" style="text;html=1;align=center;verticalAlign=middle;resizable=0;points=[];autosize=1;strokeColor=none;fillColor=none;fontSize=15;fontFamily=Helvetica;rounded=1;labelBackgroundColor=none;fontColor=#143642;" parent="1" vertex="1">
          <mxGeometry x="704" y="-474" width="41" height="30" as="geometry" />
        </mxCell>
        <mxCell id="KA5vXZ2nPaFK-a-9JE_G-204" value="0,N" style="text;html=1;align=center;verticalAlign=middle;resizable=0;points=[];autosize=1;strokeColor=none;fillColor=none;fontSize=15;fontFamily=Helvetica;rounded=1;labelBackgroundColor=none;fontColor=#143642;" parent="1" vertex="1">
          <mxGeometry x="565" y="-474" width="41" height="30" as="geometry" />
        </mxCell>
        <mxCell id="KA5vXZ2nPaFK-a-9JE_G-205" value="1,N" style="text;html=1;align=center;verticalAlign=middle;resizable=0;points=[];autosize=1;strokeColor=none;fillColor=none;fontSize=15;fontFamily=Helvetica;rounded=1;labelBackgroundColor=none;fontColor=#143642;" parent="1" vertex="1">
          <mxGeometry x="1181" y="-474" width="41" height="30" as="geometry" />
        </mxCell>
        <mxCell id="KA5vXZ2nPaFK-a-9JE_G-206" value="1,N" style="text;html=1;align=center;verticalAlign=middle;resizable=0;points=[];autosize=1;strokeColor=none;fillColor=none;fontSize=15;fontFamily=Helvetica;rounded=1;labelBackgroundColor=none;fontColor=#143642;" parent="1" vertex="1">
          <mxGeometry x="1230" y="-411" width="41" height="30" as="geometry" />
        </mxCell>
        <mxCell id="KA5vXZ2nPaFK-a-9JE_G-207" value="1,N" style="text;html=1;align=center;verticalAlign=middle;resizable=0;points=[];autosize=1;strokeColor=none;fillColor=none;fontSize=15;fontFamily=Helvetica;rounded=1;labelBackgroundColor=none;fontColor=#143642;" parent="1" vertex="1">
          <mxGeometry x="1237" y="-497" width="41" height="30" as="geometry" />
        </mxCell>
        <mxCell id="KA5vXZ2nPaFK-a-9JE_G-208" value="1,N" style="text;html=1;align=center;verticalAlign=middle;resizable=0;points=[];autosize=1;strokeColor=none;fillColor=none;fontSize=15;fontFamily=Helvetica;rounded=1;labelBackgroundColor=none;fontColor=#143642;" parent="1" vertex="1">
          <mxGeometry x="1330.13" y="-494" width="41" height="30" as="geometry" />
        </mxCell>
        <mxCell id="KA5vXZ2nPaFK-a-9JE_G-209" value="1,N" style="text;html=1;align=center;verticalAlign=middle;resizable=0;points=[];autosize=1;strokeColor=none;fillColor=none;fontSize=15;fontFamily=Helvetica;rounded=1;labelBackgroundColor=none;fontColor=#143642;" parent="1" vertex="1">
          <mxGeometry x="1326.5" y="-419" width="41" height="30" as="geometry" />
        </mxCell>
        <mxCell id="KA5vXZ2nPaFK-a-9JE_G-210" value="0,N" style="text;html=1;align=center;verticalAlign=middle;resizable=0;points=[];autosize=1;strokeColor=none;fillColor=none;fontSize=15;fontFamily=Helvetica;rounded=1;labelBackgroundColor=none;fontColor=#143642;" parent="1" vertex="1">
          <mxGeometry x="1237" y="-656" width="41" height="30" as="geometry" />
        </mxCell>
        <mxCell id="KA5vXZ2nPaFK-a-9JE_G-211" value="1,1" style="text;html=1;align=center;verticalAlign=middle;resizable=0;points=[];autosize=1;strokeColor=none;fillColor=none;fontSize=15;fontFamily=Helvetica;rounded=1;labelBackgroundColor=none;fontColor=#143642;" parent="1" vertex="1">
          <mxGeometry x="1330.13" y="-652" width="39" height="30" as="geometry" />
        </mxCell>
        <mxCell id="KA5vXZ2nPaFK-a-9JE_G-212" value="1,3" style="text;html=1;align=center;verticalAlign=middle;resizable=0;points=[];autosize=1;strokeColor=none;fillColor=none;fontSize=15;fontFamily=Helvetica;rounded=1;labelBackgroundColor=none;fontColor=#143642;" parent="1" vertex="1">
          <mxGeometry x="1192" y="-702" width="39" height="30" as="geometry" />
        </mxCell>
        <mxCell id="KA5vXZ2nPaFK-a-9JE_G-213" value="1,N" style="text;html=1;align=center;verticalAlign=middle;resizable=0;points=[];autosize=1;strokeColor=none;fillColor=none;fontSize=15;fontFamily=Helvetica;rounded=1;labelBackgroundColor=none;fontColor=#143642;" parent="1" vertex="1">
          <mxGeometry x="1011" y="-714" width="41" height="30" as="geometry" />
        </mxCell>
        <mxCell id="KA5vXZ2nPaFK-a-9JE_G-214" value="1,N" style="text;html=1;align=center;verticalAlign=middle;resizable=0;points=[];autosize=1;strokeColor=none;fillColor=none;fontSize=15;fontFamily=Helvetica;rounded=1;labelBackgroundColor=none;fontColor=#143642;" parent="1" vertex="1">
          <mxGeometry x="817" y="-706" width="41" height="30" as="geometry" />
        </mxCell>
        <mxCell id="KA5vXZ2nPaFK-a-9JE_G-215" value="1,1" style="text;html=1;align=center;verticalAlign=middle;resizable=0;points=[];autosize=1;strokeColor=none;fillColor=none;fontSize=15;fontFamily=Helvetica;rounded=1;labelBackgroundColor=none;fontColor=#143642;" parent="1" vertex="1">
          <mxGeometry x="1365" y="-179" width="39" height="30" as="geometry" />
        </mxCell>
        <mxCell id="KA5vXZ2nPaFK-a-9JE_G-216" value="1,1" style="text;html=1;align=center;verticalAlign=middle;resizable=0;points=[];autosize=1;strokeColor=none;fillColor=none;fontSize=15;fontFamily=Helvetica;rounded=1;labelBackgroundColor=none;fontColor=#143642;" parent="1" vertex="1">
          <mxGeometry x="1273.75" y="-126" width="39" height="30" as="geometry" />
        </mxCell>
        <mxCell id="KA5vXZ2nPaFK-a-9JE_G-217" value="1,N" style="text;html=1;align=center;verticalAlign=middle;resizable=0;points=[];autosize=1;strokeColor=none;fillColor=none;fontSize=15;fontFamily=Helvetica;rounded=1;labelBackgroundColor=none;fontColor=#143642;" parent="1" vertex="1">
          <mxGeometry x="1412.5" y="-126" width="41" height="30" as="geometry" />
        </mxCell>
        <mxCell id="KA5vXZ2nPaFK-a-9JE_G-218" value="1,1" style="text;html=1;align=center;verticalAlign=middle;resizable=0;points=[];autosize=1;strokeColor=none;fillColor=none;fontSize=15;fontFamily=Helvetica;rounded=1;labelBackgroundColor=none;fontColor=#143642;" parent="1" vertex="1">
          <mxGeometry x="727" y="-818" width="39" height="30" as="geometry" />
        </mxCell>
        <mxCell id="KA5vXZ2nPaFK-a-9JE_G-220" value="1,1" style="text;html=1;align=center;verticalAlign=middle;resizable=0;points=[];autosize=1;strokeColor=none;fillColor=none;fontSize=15;fontFamily=Helvetica;rounded=1;labelBackgroundColor=none;fontColor=#143642;" parent="1" vertex="1">
          <mxGeometry x="730" y="-883" width="39" height="30" as="geometry" />
        </mxCell>
        <mxCell id="KA5vXZ2nPaFK-a-9JE_G-221" value="1,20" style="text;html=1;align=center;verticalAlign=middle;resizable=0;points=[];autosize=1;strokeColor=none;fillColor=none;fontSize=15;fontFamily=Helvetica;rounded=1;labelBackgroundColor=none;fontColor=#143642;" parent="1" vertex="1">
          <mxGeometry x="718" y="-1027" width="47" height="30" as="geometry" />
        </mxCell>
        <mxCell id="KA5vXZ2nPaFK-a-9JE_G-222" value="1,1" style="text;html=1;align=center;verticalAlign=middle;resizable=0;points=[];autosize=1;strokeColor=none;fillColor=none;fontSize=15;fontFamily=Helvetica;rounded=1;labelBackgroundColor=none;fontColor=#143642;" parent="1" vertex="1">
          <mxGeometry x="791" y="-906" width="39" height="30" as="geometry" />
        </mxCell>
        <mxCell id="KA5vXZ2nPaFK-a-9JE_G-223" value="1,1" style="text;html=1;align=center;verticalAlign=middle;resizable=0;points=[];autosize=1;strokeColor=none;fillColor=none;fontSize=15;fontFamily=Helvetica;rounded=1;labelBackgroundColor=none;fontColor=#143642;" parent="1" vertex="1">
          <mxGeometry x="837" y="-863" width="39" height="30" as="geometry" />
        </mxCell>
        <mxCell id="KA5vXZ2nPaFK-a-9JE_G-224" value="1,N" style="text;html=1;align=center;verticalAlign=middle;resizable=0;points=[];autosize=1;strokeColor=none;fillColor=none;fontSize=15;fontFamily=Helvetica;rounded=1;labelBackgroundColor=none;fontColor=#143642;" parent="1" vertex="1">
          <mxGeometry x="1276" y="-724" width="41" height="30" as="geometry" />
        </mxCell>
        <mxCell id="KA5vXZ2nPaFK-a-9JE_G-225" value="1,N" style="text;html=1;align=center;verticalAlign=middle;resizable=0;points=[];autosize=1;strokeColor=none;fillColor=none;fontSize=15;fontFamily=Helvetica;rounded=1;labelBackgroundColor=none;fontColor=#143642;" parent="1" vertex="1">
          <mxGeometry x="641" y="-839" width="41" height="30" as="geometry" />
        </mxCell>
        <mxCell id="KA5vXZ2nPaFK-a-9JE_G-226" value="1,N" style="text;html=1;align=center;verticalAlign=middle;resizable=0;points=[];autosize=1;strokeColor=none;fillColor=none;fontSize=15;fontFamily=Helvetica;rounded=1;labelBackgroundColor=none;fontColor=#143642;" parent="1" vertex="1">
          <mxGeometry x="283" y="-841" width="41" height="30" as="geometry" />
        </mxCell>
        <mxCell id="KA5vXZ2nPaFK-a-9JE_G-229" value="1,N" style="text;html=1;align=center;verticalAlign=middle;resizable=0;points=[];autosize=1;strokeColor=none;fillColor=none;fontSize=15;fontFamily=Helvetica;rounded=1;labelBackgroundColor=none;fontColor=#143642;" parent="1" vertex="1">
          <mxGeometry x="285" y="-708" width="41" height="30" as="geometry" />
        </mxCell>
        <mxCell id="KA5vXZ2nPaFK-a-9JE_G-230" value="1,N" style="text;html=1;align=center;verticalAlign=middle;resizable=0;points=[];autosize=1;strokeColor=none;fillColor=none;fontSize=15;fontFamily=Helvetica;rounded=1;labelBackgroundColor=none;fontColor=#143642;" parent="1" vertex="1">
          <mxGeometry x="344" y="-683" width="41" height="30" as="geometry" />
        </mxCell>
        <mxCell id="KA5vXZ2nPaFK-a-9JE_G-231" value="1,2" style="text;html=1;align=center;verticalAlign=middle;resizable=0;points=[];autosize=1;strokeColor=none;fillColor=none;fontSize=15;fontFamily=Helvetica;rounded=1;labelBackgroundColor=none;fontColor=#143642;" parent="1" vertex="1">
          <mxGeometry x="282" y="-638" width="39" height="30" as="geometry" />
        </mxCell>
        <mxCell id="KA5vXZ2nPaFK-a-9JE_G-232" value="0,1" style="text;html=1;align=center;verticalAlign=middle;resizable=0;points=[];autosize=1;strokeColor=none;fillColor=none;fontSize=15;fontFamily=Helvetica;rounded=1;labelBackgroundColor=none;fontColor=#143642;" parent="1" vertex="1">
          <mxGeometry x="680" y="-425" width="39" height="30" as="geometry" />
        </mxCell>
        <mxCell id="KA5vXZ2nPaFK-a-9JE_G-233" value="1,N" style="text;html=1;align=center;verticalAlign=middle;resizable=0;points=[];autosize=1;strokeColor=none;fillColor=none;fontSize=15;fontFamily=Helvetica;rounded=1;labelBackgroundColor=none;fontColor=#143642;" parent="1" vertex="1">
          <mxGeometry x="888" y="-477" width="41" height="30" as="geometry" />
        </mxCell>
        <mxCell id="KA5vXZ2nPaFK-a-9JE_G-234" value="1,N" style="text;html=1;align=center;verticalAlign=middle;resizable=0;points=[];autosize=1;strokeColor=none;fillColor=none;fontSize=15;fontFamily=Helvetica;rounded=1;labelBackgroundColor=none;fontColor=#143642;" parent="1" vertex="1">
          <mxGeometry x="1051" y="-478" width="41" height="30" as="geometry" />
        </mxCell>
        <mxCell id="nj4AOBOk8mtP1z4zq-uT-2" style="edgeStyle=orthogonalEdgeStyle;rounded=0;orthogonalLoop=1;jettySize=auto;html=1;exitX=0.152;exitY=-0.025;exitDx=0;exitDy=0;exitPerimeter=0;strokeColor=#A8201A;fontColor=default;fillColor=#FAE5C7;endArrow=oval;endFill=1;labelBackgroundColor=none;" parent="1" source="9Mot5vRxFBjQDdBxqjVs-58" target="KA5vXZ2nPaFK-a-9JE_G-89" edge="1">
          <mxGeometry relative="1" as="geometry">
            <mxPoint x="248" y="-849" as="sourcePoint" />
            <mxPoint x="210" y="-795" as="targetPoint" />
            <Array as="points">
              <mxPoint x="245" y="-699" />
            </Array>
          </mxGeometry>
        </mxCell>
        <mxCell id="nj4AOBOk8mtP1z4zq-uT-4" value="" style="endArrow=none;html=1;rounded=0;exitX=0.5;exitY=0;exitDx=0;exitDy=0;entryX=0.5;entryY=1;entryDx=0;entryDy=0;entryPerimeter=0;labelBackgroundColor=none;strokeColor=#A8201A;fontColor=default;" parent="1" source="9Mot5vRxFBjQDdBxqjVs-86" target="9Mot5vRxFBjQDdBxqjVs-58" edge="1">
          <mxGeometry width="50" height="50" relative="1" as="geometry">
            <mxPoint x="483" y="-537" as="sourcePoint" />
            <mxPoint x="533" y="-587" as="targetPoint" />
          </mxGeometry>
        </mxCell>
        <mxCell id="nj4AOBOk8mtP1z4zq-uT-9" value="1,N" style="text;html=1;align=center;verticalAlign=middle;resizable=0;points=[];autosize=1;strokeColor=none;fillColor=none;fontSize=15;fontFamily=Helvetica;rounded=1;labelBackgroundColor=none;fontColor=#143642;" parent="1" vertex="1">
          <mxGeometry x="566" y="-431" width="41" height="30" as="geometry" />
        </mxCell>
        <mxCell id="nj4AOBOk8mtP1z4zq-uT-16" style="edgeStyle=none;shape=connector;rounded=1;orthogonalLoop=1;jettySize=auto;html=1;labelBackgroundColor=none;fontFamily=Helvetica;fontSize=15;fontColor=default;endArrow=oval;endFill=0;strokeColor=#A8201A;exitX=0.176;exitY=0.059;exitDx=0;exitDy=0;exitPerimeter=0;entryX=1.011;entryY=1.021;entryDx=0;entryDy=0;entryPerimeter=0;" parent="1" source="Dx_CMPOLSW68eJcPcujk-12" target="nj4AOBOk8mtP1z4zq-uT-17" edge="1">
          <mxGeometry relative="1" as="geometry">
            <mxPoint x="628" y="-852" as="sourcePoint" />
            <mxPoint x="677" y="-872" as="targetPoint" />
          </mxGeometry>
        </mxCell>
        <mxCell id="nj4AOBOk8mtP1z4zq-uT-17" value="&lt;span style=&quot;font-size: 15px;&quot;&gt;Ombra&lt;br&gt;&lt;/span&gt;" style="text;html=1;align=center;verticalAlign=middle;resizable=0;points=[];autosize=1;strokeColor=none;fillColor=none;fontSize=15;fontFamily=Helvetica;labelBackgroundColor=none;rounded=1;fontColor=#143642;arcSize=0;rotation=0;" parent="1" vertex="1">
          <mxGeometry x="587" y="-933" width="64" height="30" as="geometry" />
        </mxCell>
        <mxCell id="nj4AOBOk8mtP1z4zq-uT-18" style="edgeStyle=none;shape=connector;rounded=1;orthogonalLoop=1;jettySize=auto;html=1;labelBackgroundColor=none;fontFamily=Helvetica;fontSize=15;fontColor=default;endArrow=oval;endFill=0;strokeColor=#A8201A;exitX=0;exitY=0.25;exitDx=0;exitDy=0;exitPerimeter=0;entryX=1.01;entryY=1.045;entryDx=0;entryDy=0;entryPerimeter=0;" parent="1" source="Dx_CMPOLSW68eJcPcujk-12" target="nj4AOBOk8mtP1z4zq-uT-19" edge="1">
          <mxGeometry relative="1" as="geometry">
            <mxPoint x="622" y="-855" as="sourcePoint" />
            <mxPoint x="640" y="-858" as="targetPoint" />
          </mxGeometry>
        </mxCell>
        <mxCell id="nj4AOBOk8mtP1z4zq-uT-19" value="&lt;span style=&quot;font-size: 15px;&quot;&gt;Sole&lt;br&gt;&lt;/span&gt;" style="text;html=1;align=center;verticalAlign=middle;resizable=0;points=[];autosize=1;strokeColor=none;fillColor=none;fontSize=15;fontFamily=Helvetica;labelBackgroundColor=none;rounded=1;fontColor=#143642;arcSize=0;rotation=0;" parent="1" vertex="1">
          <mxGeometry x="589" y="-893" width="48" height="30" as="geometry" />
        </mxCell>
        <mxCell id="nj4AOBOk8mtP1z4zq-uT-20" value="0,1" style="text;html=1;align=center;verticalAlign=middle;resizable=0;points=[];autosize=1;strokeColor=none;fillColor=none;fontSize=15;fontFamily=Helvetica;rounded=1;labelBackgroundColor=none;fontColor=#143642;" parent="1" vertex="1">
          <mxGeometry x="634.75" y="-883" width="40" height="30" as="geometry" />
        </mxCell>
        <mxCell id="nj4AOBOk8mtP1z4zq-uT-21" value="0,1" style="text;html=1;align=center;verticalAlign=middle;resizable=0;points=[];autosize=1;strokeColor=none;fillColor=none;fontSize=15;fontFamily=Helvetica;rounded=1;labelBackgroundColor=none;fontColor=#143642;" parent="1" vertex="1">
          <mxGeometry x="658" y="-909" width="40" height="30" as="geometry" />
        </mxCell>
        <mxCell id="nj4AOBOk8mtP1z4zq-uT-22" value="0,1" style="text;html=1;align=center;verticalAlign=middle;resizable=0;points=[];autosize=1;strokeColor=none;fillColor=none;fontSize=15;fontFamily=Helvetica;rounded=1;labelBackgroundColor=none;fontColor=#143642;" parent="1" vertex="1">
          <mxGeometry x="701" y="-906" width="40" height="30" as="geometry" />
        </mxCell>
        <mxCell id="TdYUr1XkgakKkLenXr9e-55" value="" style="edgeStyle=none;shape=connector;rounded=1;orthogonalLoop=1;jettySize=auto;html=1;labelBackgroundColor=none;fontFamily=Helvetica;fontSize=15;fontColor=default;endArrow=oval;endFill=0;entryX=0.532;entryY=-0.107;entryDx=0;entryDy=0;entryPerimeter=0;strokeColor=#A8201A;exitX=0.579;exitY=1.025;exitDx=0;exitDy=0;exitPerimeter=0;" parent="1" edge="1">
          <mxGeometry relative="1" as="geometry">
            <mxPoint x="1001.5595000000003" y="-426.0000000000002" as="sourcePoint" />
            <mxPoint x="1001.52" y="-388.10300000000007" as="targetPoint" />
          </mxGeometry>
        </mxCell>
        <mxCell id="KA5vXZ2nPaFK-a-9JE_G-193" value="Finanziamento" style="text;html=1;align=center;verticalAlign=middle;resizable=0;points=[];autosize=1;strokeColor=none;fillColor=none;fontSize=14;labelBackgroundColor=none;rounded=1;fontColor=#143642;" parent="1" vertex="1">
          <mxGeometry x="944" y="-385" width="110" height="29" as="geometry" />
        </mxCell>
        <mxCell id="TdYUr1XkgakKkLenXr9e-57" value="" style="edgeStyle=none;shape=connector;rounded=1;orthogonalLoop=1;jettySize=auto;html=1;labelBackgroundColor=none;fontFamily=Helvetica;fontSize=15;fontColor=default;endArrow=oval;endFill=0;strokeColor=#A8201A;exitX=0.99;exitY=0.921;exitDx=0;exitDy=0;exitPerimeter=0;" parent="1" target="KA5vXZ2nPaFK-a-9JE_G-196" edge="1">
          <mxGeometry relative="1" as="geometry">
            <mxPoint x="1056.1950000000002" y="-430.15999999999985" as="sourcePoint" />
            <mxPoint x="1012" y="-378" as="targetPoint" />
          </mxGeometry>
        </mxCell>
        <mxCell id="YRi1rklV5uPQbC5nY8Jo-2" style="edgeStyle=none;shape=connector;rounded=1;orthogonalLoop=1;jettySize=auto;html=1;exitX=0;exitY=0;exitDx=0;exitDy=0;labelBackgroundColor=none;fontFamily=Helvetica;fontSize=15;fontColor=default;endArrow=oval;endFill=0;strokeColor=#A8201A;" parent="1" source="YRi1rklV5uPQbC5nY8Jo-8" target="YRi1rklV5uPQbC5nY8Jo-4" edge="1">
          <mxGeometry relative="1" as="geometry">
            <mxPoint x="53" y="-344.5" as="targetPoint" />
          </mxGeometry>
        </mxCell>
        <mxCell id="YRi1rklV5uPQbC5nY8Jo-3" style="edgeStyle=none;shape=connector;rounded=1;orthogonalLoop=1;jettySize=auto;html=1;labelBackgroundColor=none;fontFamily=Helvetica;fontSize=15;fontColor=default;endArrow=oval;endFill=0;strokeColor=#A8201A;entryX=0.509;entryY=1.108;entryDx=0;entryDy=0;entryPerimeter=0;" parent="1" source="YRi1rklV5uPQbC5nY8Jo-8" target="YRi1rklV5uPQbC5nY8Jo-5" edge="1">
          <mxGeometry relative="1" as="geometry">
            <mxPoint x="233" y="-195.5" as="sourcePoint" />
            <mxPoint x="133" y="-549.5" as="targetPoint" />
          </mxGeometry>
        </mxCell>
        <mxCell id="YRi1rklV5uPQbC5nY8Jo-4" value="&lt;span style=&quot;font-size: 15px;&quot;&gt;Biomassa&lt;/span&gt;" style="text;html=1;align=center;verticalAlign=middle;resizable=0;points=[];autosize=1;strokeColor=none;fillColor=none;fontSize=15;fontFamily=Helvetica;labelBackgroundColor=none;rounded=1;fontColor=#143642;" parent="1" vertex="1">
          <mxGeometry x="6" y="-569" width="90" height="30" as="geometry" />
        </mxCell>
        <mxCell id="YRi1rklV5uPQbC5nY8Jo-5" value="&lt;span style=&quot;font-size: 15px;&quot;&gt;Danni&lt;/span&gt;" style="text;html=1;align=center;verticalAlign=middle;resizable=0;points=[];autosize=1;strokeColor=none;fillColor=none;fontSize=15;fontFamily=Helvetica;labelBackgroundColor=none;rounded=1;fontColor=#143642;" parent="1" vertex="1">
          <mxGeometry x="59" y="-607" width="60" height="30" as="geometry" />
        </mxCell>
        <mxCell id="YRi1rklV5uPQbC5nY8Jo-6" style="edgeStyle=none;shape=connector;rounded=1;orthogonalLoop=1;jettySize=auto;html=1;exitX=0;exitY=0.5;exitDx=0;exitDy=0;labelBackgroundColor=none;fontFamily=Helvetica;fontSize=15;fontColor=default;endArrow=oval;endFill=0;strokeColor=#A8201A;" parent="1" source="YRi1rklV5uPQbC5nY8Jo-8" target="YRi1rklV5uPQbC5nY8Jo-9" edge="1">
          <mxGeometry relative="1" as="geometry" />
        </mxCell>
        <mxCell id="YRi1rklV5uPQbC5nY8Jo-7" style="edgeStyle=none;shape=connector;rounded=1;orthogonalLoop=1;jettySize=auto;html=1;exitX=0;exitY=1;exitDx=0;exitDy=0;labelBackgroundColor=none;fontFamily=Helvetica;fontSize=15;fontColor=default;endArrow=oval;endFill=0;strokeColor=#A8201A;entryX=1.084;entryY=0.679;entryDx=0;entryDy=0;entryPerimeter=0;" parent="1" source="YRi1rklV5uPQbC5nY8Jo-8" target="YRi1rklV5uPQbC5nY8Jo-10" edge="1">
          <mxGeometry relative="1" as="geometry">
            <mxPoint x="41" y="-237.5" as="targetPoint" />
          </mxGeometry>
        </mxCell>
        <mxCell id="YRi1rklV5uPQbC5nY8Jo-8" value="Altre informazioni" style="ellipse;whiteSpace=wrap;html=1;fontFamily=Helvetica;fontSize=15;labelBackgroundColor=none;rounded=1;fillColor=#FAE5C7;strokeColor=#0F8B8D;fontColor=#143642;" parent="1" vertex="1">
          <mxGeometry x="99" y="-558" width="130" height="40" as="geometry" />
        </mxCell>
        <mxCell id="YRi1rklV5uPQbC5nY8Jo-9" value="&lt;span style=&quot;font-size: 15px;&quot;&gt;Fioritura&lt;/span&gt;" style="text;html=1;align=center;verticalAlign=middle;resizable=0;points=[];autosize=1;strokeColor=none;fillColor=none;fontSize=15;fontFamily=Helvetica;labelBackgroundColor=none;rounded=1;fontColor=#143642;" parent="1" vertex="1">
          <mxGeometry x="6" y="-539" width="80" height="30" as="geometry" />
        </mxCell>
        <mxCell id="YRi1rklV5uPQbC5nY8Jo-10" value="&lt;span style=&quot;font-size: 15px;&quot;&gt;Struttura&lt;/span&gt;" style="text;html=1;align=center;verticalAlign=middle;resizable=0;points=[];autosize=1;strokeColor=none;fillColor=none;fontSize=15;fontFamily=Helvetica;labelBackgroundColor=none;rounded=1;fontColor=#143642;" parent="1" vertex="1">
          <mxGeometry x="6" y="-513" width="80" height="30" as="geometry" />
        </mxCell>
        <mxCell id="YRi1rklV5uPQbC5nY8Jo-11" value="&lt;span style=&quot;font-size: 15px;&quot;&gt;Frutticazione&lt;br&gt;&lt;/span&gt;" style="text;html=1;align=center;verticalAlign=middle;resizable=0;points=[];autosize=1;strokeColor=none;fillColor=none;fontSize=15;fontFamily=Helvetica;labelBackgroundColor=none;rounded=1;fontColor=#143642;" parent="1" vertex="1">
          <mxGeometry x="118" y="-609" width="104" height="30" as="geometry" />
        </mxCell>
        <mxCell id="YRi1rklV5uPQbC5nY8Jo-12" style="edgeStyle=none;shape=connector;rounded=1;orthogonalLoop=1;jettySize=auto;html=1;labelBackgroundColor=none;fontFamily=Helvetica;fontSize=15;fontColor=default;endArrow=oval;endFill=0;strokeColor=#A8201A;exitX=0.5;exitY=0;exitDx=0;exitDy=0;entryX=0.495;entryY=0.955;entryDx=0;entryDy=0;entryPerimeter=0;" parent="1" source="YRi1rklV5uPQbC5nY8Jo-8" target="YRi1rklV5uPQbC5nY8Jo-11" edge="1">
          <mxGeometry relative="1" as="geometry">
            <mxPoint x="196" y="-502.5" as="sourcePoint" />
            <mxPoint x="132" y="-553.5" as="targetPoint" />
          </mxGeometry>
        </mxCell>
        <mxCell id="YRi1rklV5uPQbC5nY8Jo-13" value="Ruolo" style="text;html=1;align=center;verticalAlign=middle;resizable=0;points=[];autosize=1;strokeColor=none;fillColor=none;fontSize=15;fontFamily=Helvetica;labelBackgroundColor=none;rounded=1;fontColor=#143642;" parent="1" vertex="1">
          <mxGeometry x="546" y="-415" width="57" height="30" as="geometry" />
        </mxCell>
        <mxCell id="5yJj1m6lIFx6nLE_NoE7-5" style="edgeStyle=orthogonalEdgeStyle;rounded=0;orthogonalLoop=1;jettySize=auto;html=1;exitX=0;exitY=1;exitDx=0;exitDy=0;endArrow=oval;endFill=0;labelBackgroundColor=none;strokeColor=#A8201A;fontColor=default;" edge="1" parent="1" source="5yJj1m6lIFx6nLE_NoE7-1" target="5yJj1m6lIFx6nLE_NoE7-4">
          <mxGeometry relative="1" as="geometry" />
        </mxCell>
        <mxCell id="5yJj1m6lIFx6nLE_NoE7-6" style="edgeStyle=orthogonalEdgeStyle;rounded=0;orthogonalLoop=1;jettySize=auto;html=1;exitX=1;exitY=1;exitDx=0;exitDy=0;entryX=0.626;entryY=0.062;entryDx=0;entryDy=0;entryPerimeter=0;endArrow=oval;endFill=0;labelBackgroundColor=none;strokeColor=#A8201A;fontColor=default;" edge="1" parent="1" source="5yJj1m6lIFx6nLE_NoE7-1" target="5yJj1m6lIFx6nLE_NoE7-3">
          <mxGeometry relative="1" as="geometry" />
        </mxCell>
        <mxCell id="5yJj1m6lIFx6nLE_NoE7-7" style="edgeStyle=orthogonalEdgeStyle;rounded=0;orthogonalLoop=1;jettySize=auto;html=1;exitX=1;exitY=0.5;exitDx=0;exitDy=0;endArrow=oval;endFill=0;labelBackgroundColor=none;strokeColor=#A8201A;fontColor=default;" edge="1" parent="1" source="5yJj1m6lIFx6nLE_NoE7-1" target="5yJj1m6lIFx6nLE_NoE7-2">
          <mxGeometry relative="1" as="geometry" />
        </mxCell>
        <mxCell id="5yJj1m6lIFx6nLE_NoE7-1" value="Parametri Suolo" style="ellipse;whiteSpace=wrap;html=1;fontFamily=Helvetica;fontSize=15;labelBackgroundColor=none;rounded=1;fillColor=#FAE5C7;strokeColor=#0F8B8D;fontColor=#143642;" vertex="1" parent="1">
          <mxGeometry x="323" y="-565" width="130" height="40" as="geometry" />
        </mxCell>
        <mxCell id="5yJj1m6lIFx6nLE_NoE7-2" value="&lt;span style=&quot;font-size: 15px;&quot;&gt;Ph&lt;br&gt;&lt;/span&gt;" style="text;html=1;align=center;verticalAlign=middle;resizable=0;points=[];autosize=1;strokeColor=none;fillColor=none;fontSize=15;fontFamily=Helvetica;labelBackgroundColor=none;rounded=1;fontColor=#143642;" vertex="1" parent="1">
          <mxGeometry x="480" y="-560" width="36" height="30" as="geometry" />
        </mxCell>
        <mxCell id="5yJj1m6lIFx6nLE_NoE7-3" value="&lt;span style=&quot;font-size: 15px;&quot;&gt;Temperatura&lt;br&gt;&lt;/span&gt;" style="text;html=1;align=center;verticalAlign=middle;resizable=0;points=[];autosize=1;strokeColor=none;fillColor=none;fontSize=15;fontFamily=Helvetica;labelBackgroundColor=none;rounded=1;fontColor=#143642;" vertex="1" parent="1">
          <mxGeometry x="367" y="-501" width="102" height="30" as="geometry" />
        </mxCell>
        <mxCell id="5yJj1m6lIFx6nLE_NoE7-4" value="&lt;span style=&quot;font-size: 15px;&quot;&gt;Umidità&lt;br&gt;&lt;/span&gt;" style="text;html=1;align=center;verticalAlign=middle;resizable=0;points=[];autosize=1;strokeColor=none;fillColor=none;fontSize=15;fontFamily=Helvetica;labelBackgroundColor=none;rounded=1;fontColor=#143642;" vertex="1" parent="1">
          <mxGeometry x="308" y="-504" width="69" height="30" as="geometry" />
        </mxCell>
      </root>
    </mxGraphModel>
  </diagram>
</mxfile>
